<svg width="95" height="51" viewBox="0 0 95 51" fill="none" xmlns="http://www.w3.org/2000/svg">
<path d="M0 0.320068H94.1177V27.5982L89.459 34.8772L94.1177 41.3555V50.3201H0V23.0124L2.91161 19.6641L0 16.4613V0.320068Z" fill="#016FD0"/>
<path d="M18.2703 42.3749V27.5985H33.9157L35.5944 29.7868L37.3286 27.5985H94.1177V41.356C94.1177 41.356 92.6326 42.3602 90.9149 42.375H59.4696L57.577 40.0457V42.375H51.3753V38.3988C51.3753 38.3988 50.5281 38.9538 48.6966 38.9538H46.5857V42.375H37.1958L35.5195 40.1398L33.8176 42.375L18.2703 42.3749ZM0 16.4616L3.5281 8.23633H9.62965L11.6318 12.8438V8.23633H19.2166L20.4085 11.5665L21.564 8.23633H55.6117V9.91051C55.6117 9.91051 57.4016 8.23633 60.3431 8.23633L71.3903 8.27501L73.3579 12.8221V8.23633H79.7052L81.4521 10.8483V8.23633H87.8577V23.0128H81.4521L79.778 20.3923V23.0127H70.4524L69.5145 20.6834H67.0076L66.085 23.0127H59.7607C57.2296 23.0127 55.6117 21.3728 55.6117 21.3728V23.0127H46.0761L44.1836 20.6835V23.0128H8.72576L7.78856 20.6835H5.28937L4.35906 23.0127H0V16.4616Z" fill="white"/>
<path d="M4.77817 10.0583L0.0195312 21.1224H3.11767L3.99571 18.9068H9.10015L9.97356 21.1224H13.14L8.38572 10.0583H4.77817ZM6.53878 12.6331L8.09464 16.5048H4.97838L6.53878 12.6331ZM13.4675 21.1205V10.0564L17.8701 10.0727L20.4308 17.2062L22.9302 10.0564H27.2976V21.1205H24.5316V12.968L21.5995 21.1205H19.1737L16.2335 12.968V21.1205H13.4675ZM29.1901 21.1205V10.0564H38.2161V12.5312H31.9853V14.4238H38.0705V16.7531H31.9853V18.7185H38.2161V21.1205H29.1901ZM39.8176 10.0583V21.1224H42.5836V17.1917H43.7482L47.0646 21.1224H50.4449L46.8053 17.0461C48.299 16.92 49.8398 15.6381 49.8398 13.6477C49.8398 11.3195 48.0124 10.0583 45.9729 10.0583H39.8176ZM42.5836 12.5331H45.7453C46.5039 12.5331 47.0556 13.1264 47.0556 13.6977C47.0556 14.4327 46.3407 14.8624 45.7863 14.8624H42.5836V12.5331ZM53.7932 21.1205H50.969V10.0564H53.7932V21.1205ZM60.4899 21.1205H59.8804C56.9307 21.1205 55.1398 18.7966 55.1398 15.6339C55.1398 12.393 56.9106 10.0564 60.6354 10.0564H63.6926V12.6768H60.5237C59.0117 12.6768 57.9423 13.8569 57.9423 15.6612C57.9423 17.8039 59.1651 18.7038 60.9266 18.7038H61.6545L60.4899 21.1205ZM66.5088 10.0583L61.7501 21.1224H64.8483L65.7262 18.9068H70.8306L71.7042 21.1224H74.8705L70.1164 10.0583H66.5088ZM68.2694 12.6331L69.8252 16.5048H66.7089L68.2694 12.6331ZM75.1935 21.1205V10.0564H78.7102L83.2004 17.0079V10.0564H85.9665V21.1205H82.5635L77.9595 13.9871V21.1205H75.1935ZM20.1642 40.4826V29.4185H29.1901V31.8934H22.9593V33.786H29.0445V36.1153H22.9593V38.0806H29.1901V40.4826H20.1642ZM64.3915 40.4826V29.4185H73.4174V31.8934H67.1866V33.786H73.2428V36.1153H67.1865V38.0806H73.4173V40.4826H64.3915ZM29.5405 40.4826L33.9352 35.0189L29.4358 29.4185H32.9207L35.6003 32.8806L38.289 29.4185H41.6374L37.1972 34.9506L41.5999 40.4826H38.1157L35.5139 37.0752L32.9753 40.4826H29.5405ZM41.9285 29.4204V40.4845H44.7673V36.9907H47.6789C50.1425 36.9907 52.0099 35.6836 52.0099 33.1419C52.0099 31.0362 50.5453 29.4204 48.0382 29.4204H41.9285ZM44.7673 31.9226H47.8335C48.6294 31.9226 49.1983 32.4104 49.1983 33.1964C49.1983 33.9348 48.6323 34.4702 47.8244 34.4702H44.7673V31.9226ZM53.2109 29.4185V40.4826H55.9769V36.5519H57.1416L60.4581 40.4826H63.8382L60.1988 36.4064C61.6924 36.2804 63.2331 34.9983 63.2331 33.008C63.2331 30.6797 61.4057 29.4185 59.3662 29.4185H53.2109ZM55.9769 31.8934H59.1387C59.8972 31.8934 60.449 32.4867 60.449 33.0581C60.449 33.7931 59.7341 34.2227 59.1797 34.2227H55.9769V31.8934ZM74.6985 40.4826V38.0806H80.2342C81.0533 38.0806 81.408 37.6379 81.408 37.1525C81.408 36.6873 81.0544 36.2172 80.2342 36.2172H77.7327C75.5583 36.2172 74.3473 34.8925 74.3473 32.9034C74.3473 31.1293 75.4563 29.4185 78.6875 29.4185H84.0739L82.9093 31.908H78.2507C77.3602 31.908 77.0861 32.3752 77.0861 32.8215C77.0861 33.2801 77.4248 33.786 78.1051 33.786H80.7255C83.1494 33.786 84.2013 35.1609 84.2013 36.9614C84.2013 38.8972 83.0292 40.4826 80.5936 40.4826H74.6985ZM84.8505 40.4826V38.0806H90.3861C91.2053 38.0806 91.5599 37.6379 91.5599 37.1525C91.5599 36.6873 91.2064 36.2172 90.3861 36.2172H87.8847C85.7102 36.2172 84.4993 34.8925 84.4993 32.9034C84.4993 31.1293 85.6082 29.4185 88.8394 29.4185H94.2259L93.0612 31.908H88.4027C87.5122 31.908 87.238 32.3752 87.238 32.8215C87.238 33.2801 87.5767 33.786 88.2571 33.786H90.8775C93.3014 33.786 94.3532 35.1609 94.3532 36.9614C94.3532 38.8972 93.1812 40.4826 90.7456 40.4826H84.8505Z" fill="#016FD0"/>
</svg>
