<svg width="196" height="206" viewBox="0 0 196 206" fill="none" xmlns="http://www.w3.org/2000/svg">
<path d="M166.209 180.973C168.933 181.2 170.975 181.2 173.245 181.427C175.742 181.427 178.012 180.973 180.055 179.611C181.871 178.25 183.233 176.661 184.14 174.618C185.048 172.121 185.502 169.624 184.14 166.673C183.233 165.765 181.871 164.63 180.509 163.496C180.282 163.042 180.055 162.361 180.055 161.68C179.828 158.502 179.828 155.097 178.239 151.919C179.828 149.196 180.509 146.245 181.417 143.294C183.233 136.484 181.417 130.356 177.558 124.681C174.607 120.368 171.202 116.51 167.117 112.878C161.669 107.884 155.54 103.572 149.412 99.4858C143.51 95.6271 137.609 91.7683 131.707 88.3636C121.493 82.4619 110.597 78.1492 99.4751 74.2905C96.2973 73.1556 93.1195 72.4746 89.9417 71.7937C80.4084 69.9778 71.556 70.8857 64.7465 79.0572C58.8449 79.7381 54.7591 82.6889 52.4892 88.3636C51.1273 88.3636 49.7655 88.3636 48.6306 88.3636C47.2687 88.3636 45.9068 88.1366 44.7718 88.3636C39.5512 88.8175 36.6004 92.9033 37.5083 97.8969C37.9623 100.394 38.8703 102.437 40.6861 104.252C41.3671 104.933 42.275 105.614 43.1829 106.522C42.9559 107.203 42.956 107.884 42.502 108.338C37.9623 113.786 36.3734 120.368 35.9194 127.178C34.5575 143.975 39.3242 158.956 49.9925 172.121C55.8941 179.384 62.7036 185.286 70.648 189.826C74.9607 192.323 79.2735 194.819 83.5862 197.316C87.8989 199.813 92.6656 201.856 97.2053 203.445C104.696 205.942 112.64 206.396 120.358 205.715C129.664 205.034 138.29 202.31 146.915 198.905C154.179 195.954 160.08 191.188 164.166 184.605C164.62 183.47 165.301 182.335 166.209 180.973ZM137.155 144.883C137.836 144.883 138.517 144.883 138.971 145.11C143.964 149.649 149.185 153.962 153.951 158.729C155.994 160.772 157.356 163.269 158.718 165.765C161.896 171.44 161.215 177.115 157.583 182.335C153.952 187.556 149.185 190.961 143.283 193.231C140.105 194.366 136.701 195.5 133.296 196.408C123.99 199.132 114.456 200.267 104.923 199.586C100.156 199.132 95.3894 198.224 91.0767 196.181C90.1687 195.727 89.0338 195.273 88.8068 193.912C89.2608 190.961 91.3036 188.464 91.0767 184.832C90.3957 184.151 89.7148 183.47 89.0339 183.016C84.2672 183.243 83.3592 187.783 80.1814 189.826C79.7275 189.145 79.2735 188.691 78.8196 188.464C78.3656 185.286 78.5926 182.108 77.2306 179.385C76.5497 179.158 76.0957 178.931 75.6417 178.931C72.9179 180.065 74.0528 183.47 72.237 184.832C56.575 175.98 41.1401 155.324 42.502 144.429C45.9068 147.607 46.8146 152.6 51.3543 155.097C51.5813 154.189 51.8084 153.508 51.5814 153.054C50.9004 151.465 49.7655 150.103 48.8575 148.515C45.9067 143.975 42.956 139.435 40.2321 134.441C40.4591 133.307 40.4592 131.945 40.6861 130.583C40.6861 130.583 40.913 130.583 41.594 130.356C43.1829 132.626 44.3178 135.122 45.6797 137.619C47.2686 140.116 48.6305 142.84 50.2194 145.337C50.9003 142.613 49.3115 140.57 48.4035 138.3C47.2686 136.03 46.1337 133.534 44.7718 131.264C43.6369 128.994 42.502 126.497 41.3671 124.454C41.5941 121.503 41.821 119.007 43.6369 116.737C45.6798 118.78 46.1337 121.503 47.2686 123.773C48.4035 126.043 49.5385 128.54 50.6734 130.81C51.8083 133.08 52.7163 135.576 54.5322 137.619C54.9861 137.619 55.4401 137.619 55.6671 137.619C56.348 136.257 56.1211 135.122 55.4402 133.761C53.1703 128.994 50.9004 124.227 48.8575 119.46C47.7226 117.191 46.8146 114.694 45.6797 112.424C47.4956 109.7 49.9925 108.338 52.7163 107.657C54.9862 106.976 57.256 106.295 59.7528 107.43C60.2068 109.7 60.6608 111.743 61.3417 113.786C62.2496 118.099 63.6115 122.184 65.4274 126.27C65.8814 127.178 66.3354 127.632 67.4703 127.632C68.6052 126.043 67.9243 124.227 67.4703 122.638C66.1084 118.326 64.9735 113.786 63.6116 109.473C63.3846 108.565 63.3846 107.884 64.5195 107.203C66.7894 107.657 69.5132 107.657 71.556 109.019C75.6418 126.27 75.6418 126.27 78.3656 128.54C78.8195 128.086 79.2736 127.632 79.2736 126.951C79.5005 126.043 79.2735 125.135 79.0465 124.454C78.1386 120.822 77.0037 117.418 76.0957 113.786C75.8687 112.651 74.9609 111.289 75.8688 110.154C83.8133 111.289 98.3403 117.645 106.512 123.319C107.874 128.767 108.328 134.668 110.597 139.889C111.278 139.889 111.505 139.889 111.959 139.889C112.867 138.527 112.413 137.392 112.186 136.03C111.505 132.853 110.824 129.675 110.143 126.497C110.143 126.27 110.597 125.816 111.051 125.362C112.413 126.27 114.002 127.178 115.364 128.313C116.726 133.988 117.861 139.435 119.223 144.883C119.45 146.472 119.677 147.834 120.812 148.969C121.039 149.196 121.493 149.422 121.947 149.649C123.763 149.649 123.99 148.288 124.217 146.699C123.536 144.429 122.628 142.159 121.947 139.662C121.266 137.165 119.904 134.895 120.358 131.945C121.266 132.399 121.947 132.399 122.174 132.853C122.628 133.534 122.855 134.441 123.309 135.122C125.351 140.343 127.167 145.791 128.983 151.011C129.437 151.919 129.664 153.054 131.026 153.281C132.388 152.6 132.161 151.465 131.934 150.557C130.572 146.699 128.983 142.84 127.621 138.981C127.394 138.527 127.621 137.846 127.621 136.938C130.118 137.619 131.707 138.981 133.069 140.343C133.296 141.024 133.296 141.705 133.523 142.386C134.431 147.153 135.339 151.692 136.247 156.459C136.474 157.594 136.928 158.502 138.517 158.729C138.971 158.275 139.424 157.594 139.878 156.913C139.651 154.189 138.971 151.692 138.29 149.196C137.609 147.834 137.609 146.245 137.155 144.883ZM167.571 175.753C167.798 166.673 163.712 159.41 157.81 152.827C157.129 152.146 156.675 151.465 155.994 151.011C154.179 149.423 152.59 147.607 150.774 146.018C138.29 135.122 124.67 125.816 110.143 117.645C102.88 113.559 95.3894 110.154 87.6719 107.203C81.5433 104.933 75.1878 102.891 68.8322 101.756C61.5687 100.621 54.5322 100.167 47.7226 103.345C47.2686 103.572 46.8147 103.345 46.3608 103.345C43.8639 101.302 42.729 98.5779 42.502 95.4001C42.729 94.9461 43.1829 94.2652 43.4099 93.8112C45.9067 92.9032 48.1766 93.5842 50.4465 93.8112C52.2623 94.0382 53.8512 94.0382 55.6671 92.9033C57.029 91.5413 58.391 89.7255 59.9799 88.3636C61.3418 87.2286 62.9306 86.3207 64.7465 87.4556C65.8814 89.4985 64.9734 92.4493 67.2433 94.0382C69.5131 92.4493 66.5624 89.9524 68.6052 88.1366C70.1941 88.3636 71.783 89.0445 72.9179 90.6334C73.1449 91.7683 73.5989 93.1302 73.8259 94.2652C74.0529 93.8112 74.5069 93.5842 74.7339 93.3572C75.1878 92.9033 75.4148 92.4493 75.8688 92.2223C78.5926 92.9033 79.7275 95.1731 81.0894 97.216C81.9974 96.308 82.9053 95.6271 83.8133 94.9461C86.0831 94.7191 88.8069 94.4922 91.3037 94.4922C95.3895 94.4922 98.7942 96.308 101.064 99.9398C101.972 101.302 102.88 102.891 104.015 104.252C105.604 104.933 106.966 105.614 108.328 106.295C108.555 107.657 108.782 109.246 109.009 110.608C109.236 111.516 109.69 112.197 111.051 111.516C111.278 110.154 111.278 108.565 111.505 107.203C111.959 106.976 112.413 106.749 112.867 106.749C113.321 106.749 113.548 106.976 114.229 107.43C114.456 109.7 114.683 111.97 114.91 114.24C115.591 114.467 115.818 114.467 116.272 114.467C117.634 112.424 116.045 110.154 117.18 108.111C118.769 107.203 120.131 108.111 121.266 109.246C122.401 110.835 123.536 112.424 124.443 114.24C125.351 115.829 126.259 117.191 128.302 118.326C129.437 118.553 131.253 119.234 132.842 119.46C137.836 120.141 141.467 122.865 143.51 127.178C146.007 132.172 149.639 135.576 154.859 137.165C155.767 137.392 156.448 137.846 157.129 138.3C160.08 139.889 162.577 141.705 164.166 144.656C165.301 147.153 164.393 150.103 167.117 152.827C168.932 154.643 173.018 155.097 175.288 159.183C175.515 160.772 175.969 163.269 176.65 165.992C177.558 167.808 178.466 169.624 179.601 171.894C178.92 173.256 178.239 174.391 177.558 175.753C174.153 176.434 170.975 177.796 167.571 175.753ZM150.093 128.54C148.05 126.951 147.823 124.908 146.688 123.319C145.326 121.049 144.418 118.553 142.829 116.51C140.332 113.332 136.928 111.516 132.615 111.743C131.253 111.743 129.664 112.424 127.848 111.062C127.394 110.381 126.94 109.473 126.486 108.565C122.628 101.302 117.18 98.3509 108.782 99.2588C107.647 99.2588 106.739 99.4858 105.604 99.4858C104.015 97.4429 102.88 95.1731 101.291 93.3572C96.7513 88.1366 91.3036 85.8667 84.2671 88.1366C82.9052 88.5905 81.3163 89.0445 80.1814 89.2715C77.0036 87.4556 70.648 82.235 68.3782 79.7381C72.2369 76.5603 76.7767 75.1984 81.7703 75.1984C85.6291 75.1984 89.0338 76.1064 92.6656 77.0143C93.8005 77.2413 95.1624 77.6953 96.0704 79.0572C96.2973 80.4191 96.5243 81.781 96.7513 83.3699C96.7513 83.8239 97.6592 84.0508 97.8862 84.2778C99.4751 82.9159 97.8862 80.4191 100.156 79.5111C101.518 80.1921 103.107 80.6461 104.469 81.327C105.831 84.5048 104.923 88.1366 107.42 90.6334C108.782 89.4985 108.101 88.1366 108.101 87.0016C108.101 85.8667 106.739 84.7318 107.647 83.3699C109.236 82.6889 110.597 83.5969 111.959 84.9588C112.413 86.7747 112.867 88.8175 113.548 91.0874C113.548 91.3144 114.002 91.3144 114.683 91.5413C114.91 89.7255 114.91 88.1366 114.91 86.5477C116.953 86.3207 118.088 87.2286 119.223 88.5905C120.358 91.5413 119.904 94.9461 121.947 97.8969C122.401 97.6699 123.082 97.443 123.309 97.443C124.216 95.1731 122.174 93.1302 123.082 90.6334C125.351 91.3144 126.94 92.4493 128.756 93.8112C129.21 95.8541 129.664 98.1239 130.345 100.167C130.572 101.075 130.799 101.756 131.253 102.664C131.48 103.118 132.161 103.118 132.615 103.345C134.431 101.302 131.934 99.0318 133.75 96.989C138.744 100.394 144.191 103.118 148.731 107.203C149.185 109.7 149.866 112.197 150.547 114.921C151.228 114.694 151.682 114.467 151.455 114.694C153.498 113.105 150.774 111.289 152.817 110.154C154.405 110.608 155.313 111.743 156.448 113.105C156.448 114.694 156.448 116.51 156.902 118.099C157.129 119.234 157.583 120.141 158.037 121.049C158.037 121.276 158.718 121.276 158.945 121.276C160.534 119.914 158.491 117.418 160.307 116.056C168.932 122.184 173.926 128.994 175.969 138.073C175.515 140.116 175.288 142.613 174.834 144.883C174.607 145.564 174.38 146.245 174.153 146.699C173.926 147.153 173.699 147.38 173.472 147.607C172.11 147.607 170.748 147.834 169.614 146.699C166.663 134.215 163.258 131.264 150.093 128.54Z" fill="#F9FBFC" fill-opacity="0.1"/>
<path d="M114.683 185.513C111.959 183.924 108.781 183.924 105.603 184.151C102.653 184.605 101.291 185.74 100.156 189.599C100.383 191.414 101.291 193.003 102.88 193.684C104.468 194.365 106.284 194.365 107.873 193.457C108.327 193.23 108.554 193.003 109.008 192.776C110.824 191.641 112.867 190.733 114.456 189.826C115.818 188.691 116.045 187.329 114.683 185.513Z" fill="#F9FBFC" fill-opacity="0.1"/>
<path d="M104.696 174.845C101.518 173.937 98.3405 175.072 95.6167 176.888C94.0278 177.795 93.1199 179.384 93.1199 181.2C93.1199 182.789 94.0278 184.151 95.6167 185.059C96.5246 185.059 97.8865 185.059 99.0215 185.059C102.199 183.47 104.015 180.746 105.831 178.703C106.512 176.888 106.058 175.753 104.696 174.845Z" fill="#F9FBFC" fill-opacity="0.1"/>
<path d="M63.3839 162.134C62.4759 165.993 62.4759 168.944 62.9299 171.894C63.1569 173.937 64.0648 174.845 66.5616 175.98C68.6045 175.526 69.2855 173.937 69.0585 172.121C68.6045 168.717 67.6965 165.312 66.1076 161.907C65.1997 161.907 64.5188 162.134 63.3839 162.134Z" fill="#F9FBFC" fill-opacity="0.1"/>
<path d="M76.5495 174.618C77.2304 174.164 77.6844 173.483 78.3653 172.802C78.8193 169.17 79.0462 165.539 77.9113 161.907C77.0034 161.907 76.3224 161.68 75.1875 161.68C72.6906 165.085 71.7828 168.489 72.0098 172.348C73.1447 173.937 74.0526 174.845 76.5495 174.618Z" fill="#F9FBFC" fill-opacity="0.1"/>
<path d="M54.5317 109.473C54.0778 109.927 53.6237 110.154 53.6237 110.608C53.8507 112.424 54.3047 114.467 54.7587 116.283C57.2555 124.681 58.1635 126.27 60.8873 129.902C61.1143 129.902 61.3412 129.902 61.5682 129.902C61.7952 129.675 62.2492 129.448 62.7031 128.994C62.4761 128.086 62.2492 126.951 62.0222 126.043C59.9793 121.049 58.1635 115.829 56.1206 110.835C55.6667 110.154 54.9857 109.927 54.5317 109.473Z" fill="#F9FBFC" fill-opacity="0.1"/>
<path d="M92.4382 167.127C88.5795 166.9 86.9905 169.17 85.4016 171.44C84.2667 173.256 84.2667 175.072 85.8556 176.661C87.6715 177.796 89.0334 177.569 90.8493 175.753C91.9842 173.937 92.8922 171.44 93.5731 168.943C93.3461 168.716 93.1192 168.035 92.4382 167.127Z" fill="#F9FBFC" fill-opacity="0.1"/>
<path d="M182.542 21.0115C174.906 20.8727 167.964 22.261 161.439 25.1765C149.222 30.7298 142.558 40.3092 140.753 53.4983C139.643 61.5506 140.753 69.464 143.947 76.9609C146.029 81.9589 149.083 86.2627 152.832 90.15C156.58 94.0373 161.301 96.5363 166.16 98.7576C170.602 100.84 175.461 101.812 180.321 102.645C186.984 103.756 193.648 103.2 200.174 101.673C206.838 100.146 212.391 96.6751 217.389 91.9548C219.888 89.5947 221.97 86.818 223.914 83.9026C226.552 79.7376 228.079 75.295 228.634 70.4358C229.328 65.0214 229.051 59.6069 227.662 54.1925C223.775 39.4762 214.057 30.0356 200.312 24.4824C194.481 21.9834 188.373 20.8727 182.542 21.0115ZM210.725 39.1986C212.391 38.3656 210.586 36.5607 211.835 35.7278C212.668 35.8666 213.224 36.4219 213.501 37.1161C213.918 39.7539 214.196 42.2529 214.612 44.7519C214.89 45.0295 215.167 45.3072 215.584 45.7237C216 45.3072 216.417 44.8907 216.556 44.7519C216.972 43.0859 216 41.8364 216.556 40.4481C217.944 41.0034 218.499 42.2529 219.055 43.2247C219.61 45.446 219.194 47.6673 220.304 49.611C220.998 48.9168 220.443 48.0838 220.304 47.3897C220.304 47.112 220.443 46.8343 220.582 46.1402C220.998 46.8343 221.415 47.2508 221.554 47.8062C223.359 51.5546 224.469 55.5808 225.025 59.6069C226.135 67.3815 224.608 74.7396 220.443 81.4036C218.499 84.4579 216.139 87.2345 213.501 89.5947C205.588 96.6751 196.286 99.3129 185.874 99.0353C182.125 98.8964 178.516 98.2023 174.767 97.3693C164.494 95.148 156.303 89.8723 150.055 81.5424C149.5 80.8482 148.944 80.0153 148.389 79.3211C145.89 75.5726 144.085 71.6853 143.113 67.3815C142.142 63.4942 142.142 59.4681 142.558 55.4419C142.697 53.7759 142.975 52.11 143.391 50.444C144.779 50.444 144.085 52.11 145.335 52.2488C145.474 52.2488 145.612 52.11 145.612 52.11C146.168 49.8887 145.196 47.6673 145.057 45.5849C145.196 44.8907 145.335 44.1965 146.168 44.0577C147.14 45.5848 146.445 47.5285 147.695 49.0557C148.389 47.6673 147.973 46.279 147.834 45.0295C147.695 43.6412 147.14 42.1141 147.556 40.4481C147.973 40.1704 147.973 39.0597 149.222 39.3374C149.361 40.0316 149.639 40.7257 150.055 41.9752C150.194 39.8927 150.194 38.5044 150.472 36.9773C150.472 36.6996 150.888 36.4219 151.166 36.2831C152.415 37.1161 151.443 38.7821 152.832 39.4762C153.665 37.5326 152.554 35.5889 153.387 33.5065C156.441 30.3133 160.329 28.092 164.632 26.5648C172.546 23.6494 180.737 23.094 189.067 24.3435C191.15 24.6212 193.232 24.8988 195.176 26.2872C195.314 27.6755 195.453 29.0638 195.453 30.7298C196.564 29.3415 195.453 27.8143 196.425 26.7037C197.536 26.5648 198.369 26.8425 199.063 27.6755C199.757 32.2569 199.757 32.2569 200.729 32.9511C201.701 31.5628 200.312 29.8968 201.423 28.3696C202.395 28.925 203.228 29.3415 204.2 29.8968C204.339 30.8686 204.616 31.5628 204.755 32.3958C204.894 33.2288 205.033 34.2006 205.172 35.0336C205.588 35.1724 205.866 35.3113 206.143 35.3113C206.976 34.2006 205.727 32.6734 206.421 31.5628C207.671 31.8405 208.642 32.5346 209.337 33.5065C210.031 35.3113 209.198 37.5326 210.725 39.1986Z" fill="#F9FBFC" fill-opacity="0.1"/>
<path d="M198.924 35.5886C193.232 31.8401 187.401 29.48 181.154 28.7858C179.349 28.647 177.683 28.5081 176.017 28.7858C173.657 29.2023 171.297 29.48 168.937 29.8965C164.91 30.5906 161.44 32.3954 158.524 35.3109C156.303 37.6711 154.359 40.0312 152.971 43.0855C152.138 44.8903 151.166 46.6952 150.194 48.3612C148.389 51.6931 147.695 55.3028 147.418 59.0512C147.279 61.5502 147.834 63.7715 148.528 66.1317C149.917 70.019 152.138 73.4898 154.914 76.6829C156.025 77.9324 157.136 79.3208 158.246 80.5702C161.162 84.0411 164.772 86.8177 169.075 88.6225C171.713 89.7332 174.212 90.9827 176.989 91.538C178.655 91.8157 180.321 92.371 182.126 92.371C185.18 92.371 188.234 92.5098 191.289 91.9545C197.397 90.9827 202.812 88.4837 206.977 83.9022C208.643 82.0974 210.031 80.2926 211.697 78.4878C213.918 75.7111 215.445 72.6568 216.14 69.186C216.556 67.6588 216.834 66.1317 217.111 64.4657C218.777 55.7193 216.278 48.0835 210.309 41.5584C207.671 38.6429 204.478 36.5604 200.451 35.7274C199.896 35.8662 199.48 35.7274 198.924 35.5886ZM156.442 70.1578C156.164 70.019 156.025 70.019 155.609 69.8802C154.498 67.1035 154.22 64.0492 154.776 60.9949C155.331 57.6629 156.164 54.3309 157.691 51.2766C157.691 48.7776 158.663 46.5563 159.635 44.4739C161.023 41.6972 163.106 39.7536 165.882 38.6429C168.659 37.5322 171.436 36.8381 174.49 36.9769C174.906 36.9769 175.462 36.8381 175.739 37.3934C175.462 37.5322 175.184 37.6711 175.045 37.6711C174.767 37.6711 174.49 37.6711 174.212 37.8099C166.993 39.4759 161.301 43.2244 158.385 50.4436C158.246 50.7213 157.83 50.999 157.552 51.2766C157.552 52.2485 157.552 53.0814 157.413 54.0533C156.997 56.6911 156.58 59.3289 156.303 61.9667C155.886 64.7434 155.609 67.52 156.442 70.1578C156.442 70.7132 156.442 71.2685 156.442 71.8238C156.303 71.8238 156.303 71.8238 156.164 71.8238C156.164 71.2685 156.303 70.7132 156.442 70.1578ZM204.616 65.4375C203.228 64.6045 201.979 63.7715 200.59 63.0774C200.729 61.689 201.423 60.3007 200.729 59.0512C199.618 57.1076 197.536 56.6911 196.009 55.8581C195.315 54.8863 194.482 54.0533 194.621 52.9426C199.063 55.0251 202.534 58.9124 204.894 64.6045C204.755 64.7434 204.616 65.1599 204.616 65.4375C204.478 65.4375 204.478 65.4375 204.616 65.4375ZM187.124 68.353C187.54 68.353 187.957 68.2142 188.234 68.4918C191.566 70.7132 193.926 73.6286 194.898 77.6548C194.482 77.7936 194.065 77.9324 193.649 77.9324C192.538 77.6548 191.289 77.3771 190.178 76.9606C188.373 76.2664 186.985 75.1558 186.152 73.351C185.735 72.3791 185.319 71.4073 185.041 70.4355C185.041 70.2966 185.18 70.019 185.319 69.7413C186.707 70.4355 187.401 71.8238 188.512 72.7956C189.067 73.351 189.484 74.0451 190.317 74.184C190.456 73.2121 189.761 72.7956 189.345 72.1015C188.79 70.7131 187.401 69.8802 187.124 68.353C187.124 68.2142 186.985 68.2142 186.985 68.0753C186.985 68.0753 186.985 67.9365 186.985 67.7977C186.985 68.0753 187.124 68.2142 187.124 68.353ZM204.616 54.0533C197.536 45.5845 188.512 41.4195 177.544 41.003C177.683 40.17 178.377 40.0312 178.794 39.8924C181.57 39.1982 184.486 38.6429 187.679 38.7817C189.067 39.4759 190.594 40.17 192.122 41.003C196.842 43.6409 200.729 47.2505 203.783 51.6931C204.339 52.3873 204.894 53.0814 204.616 54.0533ZM158.941 73.4898C159.218 73.6286 159.774 73.6286 159.912 73.7675C160.607 74.7393 161.162 75.8499 161.856 76.6829C165.605 81.9586 170.464 85.5682 176.85 87.0954C180.876 88.0672 184.902 88.3448 189.067 87.7895C191.011 87.5119 192.955 87.0954 194.898 86.8177C195.731 86.6789 196.703 86.8177 197.675 86.8177L197.814 86.54V86.6789C195.176 88.3448 192.26 89.1778 189.206 89.4555C186.429 89.7332 183.653 89.872 180.876 89.872C175.601 89.872 171.019 88.0672 166.993 84.5964C163.244 81.5421 160.468 77.9324 158.941 73.4898C158.941 73.2121 159.079 73.0733 158.941 73.0733C158.663 72.6568 158.802 72.518 158.941 72.7956C159.079 72.9345 158.941 73.2121 158.941 73.4898ZM164.077 76.1276C163.8 75.9888 163.244 75.8499 163.106 75.5723C161.578 73.6286 160.329 71.4073 159.496 69.0472C158.663 66.8258 158.247 64.4657 158.524 61.9667C158.941 58.7736 159.496 55.7193 160.051 52.5261C160.19 51.5543 160.468 50.7213 160.884 49.8883C163.244 44.335 167.409 41.003 173.102 39.4759C173.24 39.4759 173.379 39.6147 173.518 39.6147C173.379 40.3089 172.824 40.5865 172.269 40.8642C168.242 43.502 165.882 47.2505 164.633 51.6931C162.55 58.7736 161.995 65.9929 163.661 73.351C163.8 74.4616 163.939 75.2946 164.077 76.1276ZM197.536 62.1055C190.178 61.689 190.178 61.689 185.874 64.188C184.902 64.3269 184.208 64.4657 183.653 64.6045C181.57 66.687 182.82 69.186 182.264 71.2685C180.321 72.7956 178.238 73.4898 175.878 72.9345C174.49 72.6568 173.102 72.1015 172.546 70.7131C172.546 69.3248 173.24 68.6307 174.073 67.9365C175.045 67.1035 176.295 66.5482 176.85 65.2987C177.266 64.0492 176.85 63.2162 176.156 62.2444C175.184 60.7172 174.351 59.0513 173.935 57.1076C173.796 55.9969 173.796 55.0251 174.629 54.1921C175.601 53.6368 176.711 53.9144 177.683 54.1921C178.655 54.4698 179.627 55.0251 180.598 55.3028C181.57 55.7193 182.681 55.8581 183.653 55.3028C185.596 54.0533 186.429 51.2766 189.345 51.1378C189.623 51.4155 190.178 51.5543 190.594 51.9708C191.15 52.6649 191.844 53.3591 192.122 54.331C192.816 56.2746 194.204 57.6629 195.87 58.7736C196.425 59.0512 196.842 59.6066 197.536 60.0231C197.675 60.5784 197.675 61.2726 197.536 62.1055ZM192.26 35.4498C190.178 35.5886 188.373 35.8663 186.707 35.8663C185.319 35.8663 184.069 35.7274 182.681 35.5886C180.876 35.4498 178.932 35.1721 177.128 35.1721C174.906 35.1721 172.546 35.1721 170.325 35.4498C162.967 36.4216 157.83 40.1701 155.47 47.3893C154.637 49.7495 153.943 52.2485 153.11 54.6086C151.583 59.1901 151.444 63.7715 152.277 68.353C152.416 68.9083 152.415 69.3248 152.554 70.4355C151.86 69.6025 151.444 69.186 151.305 68.7695C148.806 63.4939 148.667 57.9406 150.75 52.5261C151.999 49.4718 153.249 46.4175 154.498 43.3632C155.886 40.17 158.108 37.8099 160.884 35.8663C162.828 34.4779 165.049 33.6449 167.409 32.9508C169.492 32.3954 171.574 31.9789 173.657 31.7013C179.904 30.5906 185.874 31.4236 191.427 34.3391C191.844 34.4779 191.844 34.7556 192.26 35.4498ZM213.085 68.353C212.113 62.7997 210.17 57.8018 207.532 52.9426C204.894 48.0835 201.146 44.1962 196.425 41.1419C195.731 40.7254 194.898 40.5866 194.621 39.7536C194.621 39.6147 194.759 39.4759 194.759 39.4759C197.536 39.1982 200.313 39.6147 202.812 40.8642C209.753 44.335 214.335 49.6106 215.307 57.6629C215.723 61.1337 215.307 64.3269 213.918 67.3812C213.918 67.7977 213.502 67.9365 213.085 68.353ZM167.548 69.7413C167.687 67.9365 167.826 66.1317 167.965 64.4657C168.242 61.8279 168.937 59.1901 170.186 56.8299C170.325 56.5523 170.741 56.5523 171.297 56.1358C171.158 57.6629 171.158 58.9124 170.88 60.0231C170.741 61.2726 170.325 62.3832 170.325 63.6327C170.325 64.8822 170.603 66.2705 170.88 67.6588C170.325 68.9083 169.908 70.2967 170.464 71.9626C170.603 72.2403 170.741 72.518 171.158 72.7956C171.713 73.2121 172.268 73.6286 172.685 74.0451C173.379 74.6005 174.212 75.017 174.767 75.7111C176.572 77.9324 178.932 79.1819 181.293 80.1537C184.069 81.2644 186.985 81.5421 189.9 80.4314C190.456 80.2926 190.872 80.1538 191.427 80.0149C192.677 80.1538 193.926 80.4314 195.037 80.5702C195.592 80.7091 196.009 80.8479 196.009 81.5421C192.677 83.6245 188.79 84.1799 185.319 84.8741C177.405 83.2081 169.77 76.8218 167.548 69.7413ZM188.095 44.6127C186.846 45.0292 186.291 45.3069 185.874 45.3069C182.542 45.8622 179.488 47.1117 176.572 48.6388C172.13 50.8601 168.937 54.3309 167.271 59.0512C166.854 60.1619 166.576 61.2726 166.021 62.7997C165.049 59.7454 164.91 57.1076 165.605 54.4698C166.715 50.5825 168.659 47.1117 171.574 44.335C176.85 42.8079 181.987 42.669 188.095 44.6127ZM176.156 50.7213C182.126 46.5563 188.234 46.4175 194.482 47.5282C199.341 50.0271 203.506 55.5804 205.449 59.1901C205.727 59.6066 205.866 60.1619 205.033 60.5784C203.089 57.5241 200.868 54.7474 197.952 52.5261C194.898 50.3048 191.844 48.2223 188.234 47.3893C186.013 48.2223 184.347 49.6106 183.236 51.4155C182.82 52.1096 182.542 52.9426 181.709 53.0814C181.431 53.0814 181.154 53.0815 180.876 52.9426C179.349 52.3873 177.961 51.6931 176.156 50.7213ZM194.898 85.1517C197.536 83.0692 199.48 81.5421 201.423 80.0149C204.894 77.0994 207.115 73.4898 208.087 69.0472C208.226 68.6307 208.087 68.0753 208.643 67.6588C209.892 69.0472 210.031 69.4637 210.864 73.6286C210.031 76.5441 207.81 78.6266 205.588 80.5702C202.812 82.9304 199.341 84.3187 194.898 85.1517ZM177.405 84.4576C176.572 84.5964 176.156 84.874 175.878 84.7352C172.685 83.9022 170.047 82.3751 167.409 80.0149C166.715 77.0994 165.882 74.0451 165.188 70.9908C165.049 70.4355 164.772 69.7413 165.466 69.3248C169.631 77.9324 169.631 77.9324 177.405 84.4576ZM197.814 68.0753C197.814 67.7977 197.952 67.52 197.952 67.1035C195.731 65.7152 193.093 65.5764 190.594 64.6045C192.816 63.9104 192.816 63.7715 194.482 64.0492C197.258 64.6045 200.174 65.021 202.673 66.8259C201.979 68.0753 200.729 68.353 199.618 68.7695C198.647 69.186 197.675 69.6025 196.564 69.6025C195.731 69.7413 194.759 69.4637 193.788 69.186C192.816 68.7695 191.844 68.2142 191.011 67.6588C190.733 67.52 190.733 67.1035 190.594 66.5482C193.371 66.8258 195.454 67.6588 197.814 68.0753ZM197.675 76.9606C200.035 75.4334 201.146 73.0733 201.979 70.7131C203.089 70.019 203.922 69.0472 205.172 69.0472C205.033 71.1296 204.894 71.8238 203.922 73.4898C202.395 76.1276 200.59 78.3489 198.647 79.5984C197.952 79.0431 197.814 78.2101 197.675 76.9606ZM187.957 78.7654C186.568 79.5984 185.458 79.4596 184.486 79.1819C182.264 78.7654 180.182 77.7936 178.377 76.4053C178.1 76.2664 177.961 75.85 177.683 75.4335C178.794 75.1558 179.627 74.8781 180.46 74.4616C181.293 74.184 182.126 73.7675 183.097 73.351C183.792 74.3228 184.347 75.1558 185.041 75.9888C185.874 76.9606 186.846 77.6548 187.957 78.7654ZM172.269 61.1337C172.685 61.4114 172.963 61.4114 173.102 61.689C173.657 62.522 174.073 63.4939 174.49 64.3269C173.657 65.4375 173.657 65.4375 172.546 65.2987C172.13 63.9104 171.991 62.522 172.269 61.1337ZM200.035 71.5461C198.785 73.0733 198.647 74.3228 197.258 74.7393C195.87 73.0733 195.731 73.0733 196.148 72.3792C196.425 72.2403 196.842 72.1015 197.12 71.9626C197.675 71.8238 198.369 71.685 200.035 71.5461Z" fill="#F9FBFC" fill-opacity="0.1"/>
<path d="M171.713 93.621C171.713 93.8986 171.852 94.1763 171.852 94.5928C175.462 96.12 179.21 97.3695 183.236 97.3695C187.401 97.3695 191.566 97.3695 195.592 96.2588C201.007 94.7317 206.144 92.5103 210.309 88.623C211.558 87.3735 212.947 86.4017 214.196 85.1522C217.806 81.8203 220.027 77.6553 221.415 72.935C222.109 70.436 222.526 68.0758 223.081 65.5769C223.22 65.1604 223.081 64.605 223.081 63.4944C222.526 64.3274 222.109 64.7439 221.971 65.1604C221.554 66.5487 221.276 68.0759 220.86 69.4642C220.166 71.6855 219.333 74.0456 218.361 76.2669C217.111 79.3213 215.168 82.0979 212.669 84.3192C210.725 85.9852 208.92 87.79 206.977 89.456C206.144 90.1502 205.311 90.7055 204.339 91.2608C198.924 94.3151 193.093 95.9811 186.846 96.5365C181.57 96.5365 176.572 95.5646 171.713 93.621Z" fill="#F9FBFC" fill-opacity="0.1"/>
<path d="M191.427 74.6008V74.7397L191.288 74.6008H191.427Z" fill="#F9FBFC" fill-opacity="0.1"/>
<path d="M190.455 73.9065C190.455 74.6007 190.733 74.7395 191.427 74.6007L191.288 74.7395C191.15 74.1842 191.011 73.7677 190.455 73.9065Z" fill="#F9FBFC" fill-opacity="0.1"/>
<path d="M48.8127 74C43.9034 66.7695 38.5375 59.9908 32.2582 53.7771C31.8016 53.3252 31.3449 52.8733 30.774 52.4214C30.4315 52.7603 30.2032 52.8733 29.9749 53.2122C28.3765 55.3588 26.0931 56.7145 23.4673 57.3924C19.3572 58.4092 15.2471 58.4092 11.1371 57.2794C6.11364 55.8107 0.633552 51.1787 0.0627094 43.3832C-0.393965 37.7344 1.66107 32.9893 5.65697 28.9221C8.73952 25.8718 12.5071 23.9512 16.7313 22.7084C19.6997 21.8046 22.7823 22.0305 25.8648 22.8214C28.8332 23.6122 31.2307 25.3069 32.9433 27.9054C33.5141 28.8092 34.0849 29.826 34.5416 30.7298C34.8841 31.2947 35.1124 31.8595 35.455 32.3115C35.7975 32.3115 36.0258 32.4244 36.2541 32.3115C40.8209 30.0519 45.5018 27.6794 50.0685 25.4198C50.5252 25.1939 50.9819 24.855 51.4386 24.516C51.3244 22.3695 50.6394 20.4489 49.9544 18.4153C49.8402 17.8504 49.6119 17.3985 49.3835 16.9466C48.6985 15.5908 48.8127 14.2351 49.2693 12.8794C49.6119 11.7496 50.0685 10.6199 50.411 9.4901C51.4385 6.89163 52.3519 4.18018 53.3794 1.58171C53.6078 0.790867 54.0644 0.225954 54.8636 0C56.8045 0.338931 56.8045 0.338931 58.6312 1.69466C59.0878 2.37252 58.9737 3.16339 58.7453 3.84125C58.2887 5.42293 57.7178 6.8916 57.147 8.47328C56.0053 11.7496 54.8636 15.026 54.4069 18.7542C54.6353 19.658 54.8636 20.9008 55.0919 21.8046C55.6628 22.2565 56.1195 22.1435 56.462 21.9176C58.1745 21.0138 59.887 19.997 61.5996 19.0932C62.7412 18.5283 63.8829 18.1893 65.2529 18.8672C65.5955 19.3191 66.1663 19.884 66.5088 20.4489C67.1938 21.5786 67.8788 22.7084 68.4497 23.8382C75.5281 37.2824 82.1499 51.0657 86.4883 65.6397C87.1733 67.7863 87.9725 69.9328 88.6575 72.0794C88.8858 72.6443 88.8858 73.3221 89 74C88.0866 74 87.2875 74 86.3741 74C84.8899 71.1756 83.9766 68.2382 83.0632 65.1878C80.5515 56.8275 77.3548 48.8061 74.1581 40.7847C72.7881 37.6214 71.3039 34.458 69.8197 31.2947C69.5913 30.8428 69.2488 30.3909 68.9063 29.826C68.5638 30.2779 68.3355 30.5038 68.2213 30.7298C67.0796 35.3618 64.1113 38.8642 60.4579 41.6886C57.0328 44.4 53.1511 46.5466 49.041 48.1283C46.301 49.258 43.4468 49.9359 40.4784 49.9359C38.5375 49.9359 36.4825 49.9359 34.5416 49.9359C34.0849 49.9359 33.6283 49.8229 33.3999 50.1619C33.1716 50.6138 33.5141 50.9527 33.8566 51.2916C36.5966 54.455 39.2225 57.6183 41.9626 60.6687C42.0767 60.7817 42.5334 60.7817 42.7617 60.7817C42.8759 58.6351 42.9901 56.6015 43.1043 54.568C43.1043 54.568 43.2184 54.455 43.4468 54.455C43.5609 54.6809 43.9034 54.9069 43.9034 55.1328C43.9034 56.3756 43.9034 57.5053 43.9034 58.7481C43.9034 60.2168 43.9034 61.7985 43.9034 63.3802C44.7026 64.5099 45.5018 65.6397 46.301 66.7695C46.4151 66.8824 46.6435 66.8825 46.8718 66.8825C47.5568 66.0916 47.1002 65.1878 47.2143 64.3969C47.2143 63.4931 47.2143 62.7023 47.2143 61.7985C47.2143 60.7817 47.1002 59.8779 47.1002 58.8611C47.1002 58.0702 46.8718 57.2794 47.2143 56.3756C48.1277 57.0535 48.1277 57.9573 48.1277 58.8611C48.1277 61.4595 48.1277 64.058 48.1277 66.6565C48.1277 67.6733 48.1277 68.5771 48.1277 69.368C49.2693 71.2886 49.2693 71.2886 50.411 71.9664C50.7535 70.4977 50.411 69.142 50.5252 67.7863C50.5252 66.4305 50.411 64.9619 50.5252 63.6061C50.6394 62.2504 50.411 60.7817 51.2102 59.313C52.0094 61.0076 52.1236 62.4763 52.1236 63.945C52.1236 66.9954 52.0094 70.0458 51.8952 73.0962C51.8952 73.4351 51.7811 73.6611 51.6669 74C50.5252 74 49.6119 74 48.8127 74ZM53.9503 27.1145C53.9503 27.0015 53.9503 26.8886 53.9503 26.8886C53.9503 26.8886 53.8361 26.8886 53.7219 26.7756C53.8361 26.8886 53.9503 27.0015 53.9503 27.1145C54.0644 29.487 54.8636 31.8596 55.5486 34.1191C55.5486 34.2321 55.6628 34.2321 55.8911 34.3451C56.1195 34.2321 56.3478 34.0061 56.5761 33.8931C55.8911 31.7466 55.0919 29.6 54.4069 27.4535C54.4069 27.3405 54.1786 27.2275 53.9503 27.1145ZM63.4262 34.571C63.0837 34.571 62.7412 34.345 62.5129 34.458C61.7137 34.7969 61.0287 35.2489 60.2295 35.7008C57.6037 37.0565 54.8636 38.1863 51.8952 38.4122C50.1827 38.5252 48.4702 38.7512 46.6435 38.8642C41.7342 39.2031 37.51 41.1237 33.8566 44.1741C33.0574 44.8519 32.3724 45.7557 31.6874 46.5466C31.5732 46.7725 31.5732 47.1115 31.4591 47.3374C31.6874 47.5634 31.9157 47.6763 32.0299 47.6763C35.6833 48.1283 39.2225 48.1282 42.7617 47.4504C47.2143 46.5466 51.3244 44.7389 54.8636 42.0275C58.0603 39.768 60.9145 37.3954 63.4262 34.571C63.4262 34.458 63.4263 34.458 63.3121 34.3451C63.3121 34.458 63.4262 34.458 63.4262 34.571ZM26.7782 48.6931C26.3215 48.9191 25.7506 49.258 25.1798 49.484C23.4673 50.3878 21.6406 51.1786 19.6997 51.5176C17.5305 51.9695 15.3613 52.1954 13.1921 51.2916C8.16868 49.371 4.97196 45.4168 5.77114 38.9771C6.79865 31.0687 14.1054 25.7588 22.0972 27.0016C24.2664 27.3405 26.0931 28.2443 27.4632 29.826C28.4907 30.9558 29.404 32.1985 30.3174 33.4412C30.6599 33.8931 30.8882 34.3451 31.2307 34.684C32.0299 34.458 32.7149 34.345 32.8291 33.4412C32.4866 31.8595 31.8016 30.2779 30.774 28.8092C29.9749 27.5664 29.0615 26.5496 27.8057 25.8718C24.6089 24.1771 21.2981 23.3863 17.6447 24.2901C13.1921 25.4198 9.42453 27.7924 6.34198 31.1817C4.85779 32.7634 3.83027 34.684 3.03109 36.8305C2.00358 39.7679 1.77524 42.8183 2.68859 45.7557C4.05861 49.9359 6.68449 52.9863 11.0229 54.229C13.7629 55.0198 16.6171 55.3588 19.4714 55.1328C23.1248 54.7939 26.2073 53.4382 28.3765 50.3878C28.1482 49.484 27.6915 48.9191 26.7782 48.6931ZM29.2899 46.0947C29.6324 45.8687 29.9749 45.7557 30.089 45.5298C34.5416 40.6718 40.0217 37.8473 46.5293 36.7176C48.356 36.3786 50.1827 36.1527 52.0094 35.8138C52.4661 35.7008 52.9227 35.3618 53.4936 35.1359C53.3794 34.2321 53.3794 33.4412 53.1511 32.7634C52.8086 31.2947 52.4661 29.826 52.1236 28.3573C52.0094 28.1313 51.7811 27.9054 51.4386 27.5664C50.411 28.0183 49.3835 28.4702 48.4702 28.9221C43.6751 31.2947 38.88 33.6672 34.0849 36.0397C31.4591 37.3954 28.8332 38.7512 26.3215 40.2199C25.979 40.4458 25.7506 40.7848 25.294 41.1237C26.664 43.0443 27.8057 44.626 29.2899 46.0947ZM20.2705 41.2366C20.2705 41.0107 20.2705 40.7847 20.1564 40.6718C17.7588 37.6214 15.3613 34.571 12.9638 31.5206C12.8496 31.4077 12.6213 31.2947 12.3929 31.1817C12.2787 31.1817 12.1646 31.1817 12.0504 31.2947C11.8221 31.4076 11.7079 31.5206 11.4796 31.6336C7.59783 34.9099 6.11364 39.0901 7.3695 44.0611C7.48367 44.626 7.712 45.0779 8.28284 45.3038C11.5937 44.626 17.9872 42.4794 20.2705 41.2366ZM29.404 35.4748C28.6048 32.3115 26.664 30.2779 24.0381 29.1481C21.9831 28.2443 19.8139 28.1313 17.6447 28.6962C16.3888 29.0351 15.133 29.0351 14.1054 30.1649C16.0463 33.4412 18.7864 36.1527 21.0697 39.0901C21.2981 39.316 21.5264 39.429 21.9831 39.655C24.0381 37.8473 26.8923 37.2825 29.404 35.4748ZM58.517 33.3282C60.8004 32.4244 62.1704 31.1817 63.4262 29.713C64.1113 28.9222 64.9104 28.1313 65.5955 27.3405C65.938 27.0015 66.2805 26.5496 66.623 26.0977C66.1663 24.4031 65.1388 23.1603 64.2254 21.8046C63.9971 21.5786 63.6546 21.4657 63.4262 21.3527C58.7453 23.3863 57.832 23.9512 55.8911 25.6458C56.8045 28.0183 57.2612 30.6168 58.517 33.3282ZM9.42453 46.9985C9.65287 47.6763 10.2237 48.0153 10.7946 48.3542C11.5937 48.8061 12.5071 49.371 13.4204 49.7099C13.9913 49.9359 14.6763 50.0489 15.3613 50.0489C18.9005 50.1619 22.3256 49.258 25.1798 47.2244C25.294 47.1115 25.294 46.9985 25.4081 46.8855C24.2664 45.4168 22.8964 43.9481 21.4122 42.7054C20.4989 43.0443 19.5855 43.2702 18.7864 43.4962C17.9872 43.8351 17.188 44.1741 16.3888 44.4C15.7038 44.626 14.9046 44.9649 14.2196 45.1908C13.4204 45.4168 12.5071 45.6428 11.7079 45.8687C10.9087 46.2076 9.99537 46.2076 9.42453 46.9985ZM50.7535 15.026C51.3244 17.8504 51.8952 20.5618 53.1511 23.7252C53.1511 22.7084 53.2652 22.2565 53.1511 21.9176C52.5802 19.997 52.6944 18.0764 53.2652 16.1557C54.2928 13.1054 55.0919 9.94199 56.1195 6.89161C56.5761 5.53588 57.0328 4.29314 57.0328 2.93741C56.8045 2.25955 56.3478 2.0336 55.777 1.92062C55.6628 2.0336 55.3203 2.14657 55.3203 2.37253C53.7219 6.55268 52.2377 10.8458 50.7535 15.026Z" fill="#F9FBFC" fill-opacity="0.1"/>
<path d="M55 74C55 70.6771 55 67.4688 55.1569 64.1458C55.1569 63.5729 55.3137 63 56.4118 63C56.5686 63.3438 56.8824 63.6875 56.8824 64.1458C57.0392 65.2917 57.0392 66.5521 56.8824 67.6979C56.8824 69.7604 56.7255 71.8229 56.7255 73.8854C56.2549 74 55.6275 74 55 74Z" fill="#F9FBFC" fill-opacity="0.1"/>
<path d="M60 74C60 72.2295 60.0786 70.459 60.0786 68.6885C60.0786 68.2951 60.2357 68 60.707 68C61.2569 69.9672 60.8641 72.0328 60.8641 74C60.5499 74 60.2357 74 60 74Z" fill="#F9FBFC" fill-opacity="0.1"/>
<path d="M66.8571 74.875C66.381 73.5 66.0952 72 66 70.5C66.2857 70.375 66.4762 70.125 66.6667 70C67.7143 71.5 67.7143 73.25 68 75C67.619 74.875 67.2381 74.875 66.8571 74.875Z" fill="#F9FBFC" fill-opacity="0.1"/>
<path d="M64.7647 61C64.1765 60.6757 63.7059 60.3514 63 60.027C63 59.2703 63 58.6216 63 57.8649C63.5882 57.5406 64.1765 57.2162 64.6471 57C66.0588 57.2162 66.8824 57.8649 67 59.054C67 60.027 66.2941 60.6757 64.7647 61Z" fill="#F9FBFC" fill-opacity="0.1"/>
<path d="M69.693 51.4571C70.9634 50.8857 71.7719 50.7714 72.4648 51.5714C73.1578 52.2571 73.1578 53.0571 72.5803 54.2C72.2339 54.4286 71.6564 54.7714 71.3099 55C70.0395 54.8857 69.3465 54.3143 69 53.0571C69.1155 52.6 69.462 52.0286 69.693 51.4571Z" fill="#F9FBFC" fill-opacity="0.1"/>
<path d="M66.2727 48C65.4545 47.6364 65 46.9091 65 45.697C65.2727 44.4849 65.8182 44 66.6364 44C67.5455 44.3636 68 45.0909 68 46.303C67.7273 47.3939 67.2727 48 66.2727 48Z" fill="#F9FBFC" fill-opacity="0.1"/>
<path d="M59 50.6923C59.4171 50.4615 59.7508 50.2308 60.0011 50C60.8353 50.4615 61.169 51.1538 60.9187 52.3077C60.7519 52.5385 60.5016 52.7692 60.3348 53C59.3337 52.8846 59.1668 52.5385 59 50.6923Z" fill="#F9FBFC" fill-opacity="0.1"/>
<path d="M72.8065 67C72.4956 66.8095 72.0292 66.5238 72.0292 66.4286C71.8737 65.4762 72.3401 65.0952 73.4284 65C74.2057 65 74.6722 65.2857 74.9831 65.6667C75.1386 66.5238 74.2058 66.8095 72.8065 67Z" fill="#F9FBFC" fill-opacity="0.1"/>
</svg>
