<svg width="" height="" viewBox="0 0 196 206" fill="none" xmlns="http://www.w3.org/2000/svg">
<path d="M29.7913 180.973C27.0674 181.2 25.0246 181.2 22.7548 181.427C20.258 181.427 17.9881 180.973 15.9452 179.611C14.1294 178.25 12.7675 176.661 11.8595 174.618C10.9516 172.121 10.4976 169.624 11.8595 166.673C12.7675 165.765 14.1293 164.63 15.4912 163.496C15.7182 163.042 15.9452 162.361 15.9452 161.68C16.1722 158.502 16.1722 155.097 17.7611 151.919C16.1722 149.196 15.4912 146.245 14.5832 143.294C12.7674 136.484 14.5833 130.356 18.442 124.681C21.3928 120.368 24.7977 116.51 28.8834 112.878C34.331 107.884 40.4596 103.572 46.5882 99.4858C52.4898 95.6271 58.3914 91.7683 64.293 88.3636C74.5073 82.4619 85.4026 78.1492 96.5249 74.2905C99.7027 73.1556 102.88 72.4746 106.058 71.7937C115.592 69.9778 124.444 70.8857 131.254 79.0572C137.155 79.7381 141.241 82.6889 143.511 88.3636C144.873 88.3636 146.234 88.3636 147.369 88.3636C148.731 88.3636 150.093 88.1366 151.228 88.3636C156.449 88.8175 159.4 92.9033 158.492 97.8969C158.038 100.394 157.13 102.437 155.314 104.252C154.633 104.933 153.725 105.614 152.817 106.522C153.044 107.203 153.044 107.884 153.498 108.338C158.038 113.786 159.627 120.368 160.081 127.178C161.443 143.975 156.676 158.956 146.008 172.121C140.106 179.384 133.296 185.286 125.352 189.826C121.039 192.323 116.727 194.819 112.414 197.316C108.101 199.813 103.334 201.856 98.7947 203.445C91.3042 205.942 83.3597 206.396 75.6422 205.715C66.3358 205.034 57.7104 202.31 49.085 198.905C41.8215 195.954 35.9199 191.188 31.8342 184.605C31.3802 183.47 30.6992 182.335 29.7913 180.973ZM58.8453 144.883C58.1643 144.883 57.4834 144.883 57.0294 145.11C52.0358 149.649 46.8152 153.962 42.0485 158.729C40.0056 160.772 38.6436 163.269 37.2817 165.765C34.1039 171.44 34.7849 177.115 38.4167 182.335C42.0484 187.556 46.8152 190.961 52.7168 193.231C55.8946 194.366 59.2993 195.5 62.7041 196.408C72.0104 199.132 81.5438 200.267 91.0772 199.586C95.8439 199.132 100.611 198.224 104.923 196.181C105.831 195.727 106.966 195.273 107.193 193.912C106.739 190.961 104.696 188.464 104.923 184.832C105.604 184.151 106.285 183.47 106.966 183.016C111.733 183.243 112.641 187.783 115.819 189.826C116.273 189.145 116.726 188.691 117.18 188.464C117.634 185.286 117.407 182.108 118.769 179.385C119.45 179.158 119.904 178.931 120.358 178.931C123.082 180.065 121.947 183.47 123.763 184.832C139.425 175.98 154.86 155.324 153.498 144.429C150.093 147.607 149.185 152.6 144.646 155.097C144.419 154.189 144.192 153.508 144.419 153.054C145.1 151.465 146.235 150.103 147.142 148.515C150.093 143.975 153.044 139.435 155.768 134.441C155.541 133.307 155.541 131.945 155.314 130.583C155.314 130.583 155.087 130.583 154.406 130.356C152.817 132.626 151.682 135.122 150.32 137.619C148.731 140.116 147.37 142.84 145.781 145.337C145.1 142.613 146.689 140.57 147.596 138.3C148.731 136.03 149.866 133.534 151.228 131.264C152.363 128.994 153.498 126.497 154.633 124.454C154.406 121.503 154.179 119.007 152.363 116.737C150.32 118.78 149.866 121.503 148.731 123.773C147.596 126.043 146.462 128.54 145.327 130.81C144.192 133.08 143.284 135.576 141.468 137.619C141.014 137.619 140.56 137.619 140.333 137.619C139.652 136.257 139.879 135.122 140.56 133.761C142.83 128.994 145.1 124.227 147.142 119.46C148.277 117.191 149.185 114.694 150.32 112.424C148.504 109.7 146.008 108.338 143.284 107.657C141.014 106.976 138.744 106.295 136.247 107.43C135.793 109.7 135.339 111.743 134.658 113.786C133.75 118.099 132.388 122.184 130.573 126.27C130.119 127.178 129.665 127.632 128.53 127.632C127.395 126.043 128.076 124.227 128.53 122.638C129.892 118.326 131.027 113.786 132.388 109.473C132.615 108.565 132.615 107.884 131.48 107.203C129.211 107.657 126.487 107.657 124.444 109.019C120.358 126.27 120.358 126.27 117.634 128.54C117.18 128.086 116.726 127.632 116.726 126.951C116.499 126.043 116.727 125.135 116.953 124.454C117.861 120.822 118.996 117.418 119.904 113.786C120.131 112.651 121.039 111.289 120.131 110.154C112.187 111.289 97.6597 117.645 89.4883 123.319C88.1263 128.767 87.6724 134.668 85.4025 139.889C84.7216 139.889 84.4947 139.889 84.0407 139.889C83.1328 138.527 83.5866 137.392 83.8136 136.03C84.4946 132.853 85.1756 129.675 85.8566 126.497C85.8566 126.27 85.4025 125.816 84.9486 125.362C83.5866 126.27 81.9978 127.178 80.6359 128.313C79.274 133.988 78.1391 139.435 76.7772 144.883C76.5502 146.472 76.3232 147.834 75.1882 148.969C74.9612 149.196 74.5073 149.422 74.0533 149.649C72.2374 149.649 72.0104 148.288 71.7835 146.699C72.4644 144.429 73.3724 142.159 74.0533 139.662C74.7343 137.165 76.0962 134.895 75.6422 131.945C74.7343 132.399 74.0534 132.399 73.8264 132.853C73.3724 133.534 73.1454 134.441 72.6915 135.122C70.6486 140.343 68.8327 145.791 67.0168 151.011C66.5629 151.919 66.3358 153.054 64.9739 153.281C63.612 152.6 63.8391 151.465 64.0661 150.557C65.428 146.699 67.0168 142.84 68.3787 138.981C68.6057 138.527 68.3787 137.846 68.3787 136.938C65.8819 137.619 64.293 138.981 62.9311 140.343C62.7041 141.024 62.7041 141.705 62.4771 142.386C61.5692 147.153 60.6612 151.692 59.7533 156.459C59.5263 157.594 59.0723 158.502 57.4834 158.729C57.0295 158.275 56.5756 157.594 56.1216 156.913C56.3486 154.189 57.0294 151.692 57.7104 149.196C58.3913 147.834 58.3913 146.245 58.8453 144.883ZM28.4294 175.753C28.2024 166.673 32.2881 159.41 38.1897 152.827C38.8707 152.146 39.3246 151.465 40.0056 151.011C41.8215 149.423 43.4103 147.607 45.2262 146.018C57.7104 135.122 71.3295 125.816 85.8566 117.645C93.1201 113.559 100.611 110.154 108.328 107.203C114.457 104.933 120.812 102.891 127.168 101.756C134.431 100.621 141.468 100.167 148.277 103.345C148.731 103.572 149.185 103.345 149.639 103.345C152.136 101.302 153.271 98.5779 153.498 95.4001C153.271 94.9461 152.817 94.2652 152.59 93.8112C150.093 92.9032 147.823 93.5842 145.554 93.8112C143.738 94.0382 142.149 94.0382 140.333 92.9033C138.971 91.5413 137.609 89.7255 136.02 88.3636C134.658 87.2286 133.069 86.3207 131.254 87.4556C130.119 89.4985 131.027 92.4493 128.757 94.0382C126.487 92.4493 129.438 89.9524 127.395 88.1366C125.806 88.3636 124.217 89.0445 123.082 90.6334C122.855 91.7683 122.401 93.1302 122.174 94.2652C121.947 93.8112 121.493 93.5842 121.266 93.3572C120.812 92.9033 120.585 92.4493 120.131 92.2223C117.407 92.9033 116.272 95.1731 114.911 97.216C114.003 96.308 113.095 95.6271 112.187 94.9461C109.917 94.7191 107.193 94.4922 104.696 94.4922C100.611 94.4922 97.2058 96.308 94.9359 99.9398C94.028 101.302 93.1201 102.891 91.9852 104.252C90.3963 104.933 89.0343 105.614 87.6724 106.295C87.4454 107.657 87.2185 109.246 86.9915 110.608C86.7645 111.516 86.3105 112.197 84.9486 111.516C84.7216 110.154 84.7217 108.565 84.4947 107.203C84.0407 106.976 83.5867 106.749 83.1327 106.749C82.6787 106.749 82.4518 106.976 81.7709 107.43C81.5439 109.7 81.3169 111.97 81.0899 114.24C80.409 114.467 80.1819 114.467 79.7279 114.467C78.366 112.424 79.955 110.154 78.8201 108.111C77.2312 107.203 75.8692 108.111 74.7342 109.246C73.5993 110.835 72.4645 112.424 71.5565 114.24C70.6486 115.829 69.7406 117.191 67.6978 118.326C66.5628 118.553 64.747 119.234 63.1581 119.46C58.1644 120.141 54.5326 122.865 52.4897 127.178C49.9929 132.172 46.3612 135.576 41.1405 137.165C40.2326 137.392 39.5516 137.846 38.8707 138.3C35.9199 139.889 33.4231 141.705 31.8342 144.656C30.6993 147.153 31.6072 150.103 28.8834 152.827C27.0675 154.643 22.9817 155.097 20.7119 159.183C20.4849 160.772 20.031 163.269 19.35 165.992C18.4421 167.808 17.5342 169.624 16.3992 171.894C17.0802 173.256 17.7611 174.391 18.442 175.753C21.8468 176.434 25.0246 177.796 28.4294 175.753ZM45.9073 128.54C47.9501 126.951 48.1771 124.908 49.312 123.319C50.674 121.049 51.5818 118.553 53.1707 116.51C55.6675 113.332 59.0723 111.516 63.385 111.743C64.7469 111.743 66.3359 112.424 68.1518 111.062C68.6057 110.381 69.0596 109.473 69.5136 108.565C73.3724 101.302 78.82 98.3509 87.2184 99.2588C88.3533 99.2588 89.2613 99.4858 90.3962 99.4858C91.9851 97.4429 93.1201 95.1731 94.709 93.3572C99.2487 88.1366 104.696 85.8667 111.733 88.1366C113.095 88.5905 114.684 89.0445 115.819 89.2715C118.996 87.4556 125.352 82.235 127.622 79.7381C123.763 76.5603 119.223 75.1984 114.23 75.1984C110.371 75.1984 106.966 76.1064 103.334 77.0143C102.199 77.2413 100.838 77.6953 99.9296 79.0572C99.7027 80.4191 99.4757 81.781 99.2487 83.3699C99.2487 83.8239 98.3408 84.0508 98.1138 84.2778C96.5249 82.9159 98.1138 80.4191 95.8439 79.5111C94.482 80.1921 92.8931 80.6461 91.5312 81.327C90.1693 84.5048 91.0772 88.1366 88.5804 90.6334C87.2185 89.4985 87.8995 88.1366 87.8995 87.0016C87.8995 85.8667 89.2613 84.7318 88.3533 83.3699C86.7644 82.6889 85.4026 83.5969 84.0407 84.9588C83.5867 86.7747 83.1327 88.8175 82.4518 91.0874C82.4518 91.3144 81.9978 91.3144 81.3168 91.5413C81.0899 89.7255 81.0899 88.1366 81.0899 86.5477C79.0471 86.3207 77.9121 87.2286 76.7772 88.5905C75.6422 91.5413 76.0962 94.9461 74.0533 97.8969C73.5993 97.6699 72.9184 97.443 72.6915 97.443C71.7835 95.1731 73.8263 93.1302 72.9184 90.6334C70.6485 91.3144 69.0596 92.4493 67.2438 93.8112C66.7898 95.8541 66.3358 98.1239 65.6548 100.167C65.4279 101.075 65.201 101.756 64.747 102.664C64.52 103.118 63.839 103.118 63.385 103.345C61.5691 101.302 64.0659 99.0318 62.2501 96.989C57.2564 100.394 51.8088 103.118 47.2691 107.203C46.8152 109.7 46.1342 112.197 45.4533 114.921C44.7723 114.694 44.3183 114.467 44.5453 114.694C42.5024 113.105 45.2263 111.289 43.1834 110.154C41.5945 110.608 40.6865 111.743 39.5516 113.105C39.5516 114.694 39.5517 116.51 39.0977 118.099C38.8707 119.234 38.4168 120.141 37.9628 121.049C37.9628 121.276 37.2818 121.276 37.0548 121.276C35.4659 119.914 37.5088 117.418 35.693 116.056C27.0675 122.184 22.0738 128.994 20.0309 138.073C20.4849 140.116 20.7119 142.613 21.1659 144.883C21.3929 145.564 21.6198 146.245 21.8468 146.699C22.0738 147.153 22.3007 147.38 22.5277 147.607C23.8896 147.607 25.2516 147.834 26.3865 146.699C29.3373 134.215 32.7421 131.264 45.9073 128.54Z" fill="#F9FBFC" fill-opacity="0.1"/>
<path d="M81.3172 185.513C84.0411 183.924 87.2189 183.924 90.3966 184.151C93.3474 184.605 94.7094 185.74 95.8443 189.599C95.6173 191.414 94.7094 193.003 93.1205 193.684C91.5316 194.365 89.7157 194.365 88.1268 193.457C87.6728 193.23 87.4458 193.003 86.9919 192.776C85.176 191.641 83.1331 190.733 81.5442 189.826C80.1823 188.691 79.9553 187.329 81.3172 185.513Z" fill="#F9FBFC" fill-opacity="0.1"/>
<path d="M91.3039 174.845C94.4817 173.937 97.6595 175.072 100.383 176.888C101.972 177.795 102.88 179.384 102.88 181.2C102.88 182.789 101.972 184.151 100.383 185.059C99.4754 185.059 98.1135 185.059 96.9785 185.059C93.8008 183.47 91.9849 180.746 90.169 178.703C89.488 176.888 89.942 175.753 91.3039 174.845Z" fill="#F9FBFC" fill-opacity="0.1"/>
<path d="M132.616 162.134C133.524 165.993 133.524 168.944 133.07 171.894C132.843 173.937 131.935 174.845 129.438 175.98C127.396 175.526 126.715 173.937 126.941 172.121C127.395 168.717 128.304 165.312 129.892 161.907C130.8 161.907 131.481 162.134 132.616 162.134Z" fill="#F9FBFC" fill-opacity="0.1"/>
<path d="M119.451 174.618C118.77 174.164 118.316 173.483 117.635 172.802C117.181 169.17 116.954 165.539 118.089 161.907C118.997 161.907 119.678 161.68 120.813 161.68C123.309 165.085 124.217 168.489 123.99 172.348C122.855 173.937 121.947 174.845 119.451 174.618Z" fill="#F9FBFC" fill-opacity="0.1"/>
<path d="M141.468 109.473C141.922 109.927 142.376 110.154 142.376 110.608C142.149 112.424 141.695 114.467 141.241 116.283C138.745 124.681 137.837 126.27 135.113 129.902C134.886 129.902 134.659 129.902 134.432 129.902C134.205 129.675 133.751 129.448 133.297 128.994C133.524 128.086 133.751 126.951 133.978 126.043C136.021 121.049 137.836 115.829 139.879 110.835C140.333 110.154 141.014 109.927 141.468 109.473Z" fill="#F9FBFC" fill-opacity="0.1"/>
<path d="M103.562 167.127C107.421 166.9 109.01 169.17 110.598 171.44C111.733 173.256 111.733 175.072 110.144 176.661C108.329 177.796 106.967 177.569 105.151 175.753C104.016 173.937 103.108 171.44 102.427 168.943C102.654 168.716 102.881 168.035 103.562 167.127Z" fill="#F9FBFC" fill-opacity="0.1"/>
<path d="M13.4581 21.0115C21.0939 20.8727 28.0355 22.261 34.5606 25.1765C46.7779 30.7298 53.4418 40.3092 55.2467 53.4983C56.3573 61.5506 55.2466 69.464 52.0535 76.9609C49.971 81.9589 46.9167 86.2627 43.1682 90.15C39.4198 94.0373 34.6994 96.5363 29.8403 98.7576C25.3977 100.84 20.5386 101.812 15.6795 102.645C9.01553 103.756 2.35151 103.2 -4.17361 101.673C-10.8376 100.146 -16.3908 96.6751 -21.3888 91.9548C-23.8877 89.5947 -25.9702 86.818 -27.9139 83.9026C-30.5517 79.7376 -32.0789 75.295 -32.6342 70.4358C-33.3284 65.0214 -33.0507 59.6069 -31.6624 54.1925C-27.7751 39.4762 -18.0568 30.0356 -4.31241 24.4824C1.51855 21.9834 7.62715 20.8727 13.4581 21.0115ZM-14.7248 39.1986C-16.3908 38.3656 -14.586 36.5607 -15.8355 35.7278C-16.6685 35.8666 -17.2238 36.4219 -17.5015 37.1161C-17.918 39.7539 -18.1956 42.2529 -18.6121 44.7519C-18.8898 45.0295 -19.1675 45.3072 -19.584 45.7237C-20.0005 45.3072 -20.417 44.8907 -20.5558 44.7519C-20.9723 43.0859 -20.0005 41.8364 -20.5558 40.4481C-21.9441 41.0034 -22.4994 42.2529 -23.0548 43.2247C-23.6101 45.446 -23.1936 47.6673 -24.3043 49.611C-24.9985 48.9168 -24.4431 48.0838 -24.3043 47.3897C-24.3043 47.112 -24.4431 46.8343 -24.5819 46.1402C-24.9984 46.8343 -25.4149 47.2508 -25.5537 47.8062C-27.3585 51.5546 -28.4692 55.5808 -29.0245 59.6069C-30.1352 67.3815 -28.6081 74.7396 -24.4431 81.4036C-22.4994 84.4579 -20.1393 87.2345 -17.5015 89.5947C-9.58804 96.6751 -0.28624 99.3129 10.1262 99.0353C13.8747 98.8964 17.4843 98.2023 21.2328 97.3693C31.5064 95.148 39.6974 89.8723 45.9449 81.5424C46.5002 80.8482 47.0556 80.0153 47.6109 79.3211C50.1099 75.5726 51.9147 71.6853 52.8865 67.3815C53.8583 63.4942 53.8583 59.4681 53.4418 55.4419C53.3029 53.7759 53.0253 52.11 52.6088 50.444C51.2205 50.444 51.9146 52.11 50.6651 52.2488C50.5263 52.2488 50.3875 52.11 50.3875 52.11C49.8322 49.8887 50.804 47.6673 50.9428 45.5849C50.804 44.8907 50.6652 44.1965 49.8322 44.0577C48.8604 45.5848 49.5546 47.5285 48.3051 49.0557C47.6109 47.6673 48.0273 46.279 48.1662 45.0295C48.305 43.6412 48.8604 42.1141 48.4439 40.4481C48.0274 40.1704 48.0273 39.0597 46.7779 39.3374C46.639 40.0316 46.3614 40.7257 45.9449 41.9752C45.8061 39.8927 45.8061 38.5044 45.5284 36.9773C45.5284 36.6996 45.1119 36.4219 44.8343 36.2831C43.5848 37.1161 44.5566 38.7821 43.1682 39.4762C42.3353 37.5326 43.4459 35.5889 42.6129 33.5065C39.5586 30.3133 35.6713 28.092 31.3675 26.5648C23.4541 23.6494 15.2629 23.094 6.93297 24.3435C4.85049 24.6212 2.76805 24.8988 0.824402 26.2872C0.68557 27.6755 0.546719 29.0638 0.546719 30.7298C-0.563938 29.3415 0.546703 27.8143 -0.425121 26.7037C-1.53578 26.5648 -2.36872 26.8425 -3.06289 27.6755C-3.75705 32.2569 -3.75706 32.2569 -4.72889 32.9511C-5.70072 31.5628 -4.31239 29.8968 -5.42305 28.3696C-6.39488 28.925 -7.22787 29.3415 -8.1997 29.8968C-8.33853 30.8686 -8.61623 31.5628 -8.75506 32.3958C-8.89389 33.2288 -9.03271 34.2006 -9.17154 35.0336C-9.58804 35.1724 -9.86572 35.3113 -10.1434 35.3113C-10.9764 34.2006 -9.7269 32.6734 -10.4211 31.5628C-11.6706 31.8405 -12.6423 32.5346 -13.3365 33.5065C-14.0307 35.3113 -13.1977 37.5326 -14.7248 39.1986Z" fill="#F9FBFC" fill-opacity="0.1"/>
<path d="M-2.92433 35.5886C2.7678 31.8401 8.59873 29.48 14.8462 28.7858C16.651 28.647 18.317 28.5081 19.983 28.7858C22.3431 29.2023 24.7033 29.48 27.0634 29.8965C31.0896 30.5906 34.5604 32.3954 37.4758 35.3109C39.6972 37.6711 41.6408 40.0312 43.0291 43.0855C43.8621 44.8903 44.8339 46.6952 45.8058 48.3612C47.6106 51.6931 48.3048 55.3028 48.5824 59.0512C48.7213 61.5502 48.1659 63.7715 47.4718 66.1317C46.0835 70.019 43.8622 73.4898 41.0855 76.6829C39.9749 77.9324 38.8642 79.3208 37.7535 80.5702C34.838 84.0411 31.2284 86.8177 26.9246 88.6225C24.2868 89.7332 21.7878 90.9827 19.0112 91.538C17.3452 91.8157 15.6792 92.371 13.8743 92.371C10.82 92.371 7.76576 92.5098 4.71145 91.9545C-1.39717 90.9827 -6.81161 88.4837 -10.9766 83.9022C-12.6426 82.0974 -14.0309 80.2926 -15.6969 78.4878C-17.9182 75.7111 -19.4454 72.6568 -20.1396 69.186C-20.5561 67.6588 -20.8337 66.1317 -21.1113 64.4657C-22.7773 55.7193 -20.2784 48.0835 -14.3086 41.5584C-11.6708 38.6429 -8.47759 36.5604 -4.45145 35.7274C-3.89612 35.8662 -3.47966 35.7274 -2.92433 35.5886ZM39.5583 70.1578C39.836 70.019 39.9749 70.019 40.3914 69.8802C41.502 67.1035 41.7797 64.0492 41.2243 60.9949C40.669 57.6629 39.836 54.3309 38.3089 51.2766C38.3089 48.7776 37.337 46.5563 36.3652 44.4739C34.9769 41.6972 32.8944 39.7536 30.1177 38.6429C27.3411 37.5322 24.5644 36.8381 21.5101 36.9769C21.0936 36.9769 20.5383 36.8381 20.2607 37.3934C20.5383 37.5322 20.816 37.6711 20.9548 37.6711C21.2325 37.6711 21.5101 37.6711 21.7878 37.8099C29.0071 39.4759 34.6992 43.2244 37.6147 50.4436C37.7536 50.7213 38.17 50.999 38.4477 51.2766C38.4477 52.2485 38.4477 53.0814 38.5866 54.0533C39.0031 56.6911 39.4195 59.3289 39.6972 61.9667C40.1137 64.7434 40.3913 67.52 39.5583 70.1578C39.5583 70.7132 39.5583 71.2685 39.5583 71.8238C39.6972 71.8238 39.6972 71.8238 39.836 71.8238C39.836 71.2685 39.6972 70.7132 39.5583 70.1578ZM-8.61642 65.4375C-7.2281 64.6045 -5.97865 63.7715 -4.59033 63.0774C-4.72916 61.689 -5.42329 60.3007 -4.72913 59.0512C-3.61847 57.1076 -1.53604 56.6911 -0.00888443 55.8581C0.685278 54.8863 1.51827 54.0533 1.37944 52.9426C-3.06319 55.0251 -6.53395 58.9124 -8.8941 64.6045C-8.75527 64.7434 -8.61642 65.1599 -8.61642 65.4375C-8.47758 65.4375 -8.47758 65.4375 -8.61642 65.4375ZM8.87642 68.353C8.45992 68.353 8.04344 68.2142 7.76578 68.4918C4.4338 70.7132 2.07367 73.6286 1.10184 77.6548C1.51834 77.7936 1.93479 77.9324 2.35128 77.9324C3.46194 77.6548 4.71143 77.3771 5.82209 76.9606C7.62691 76.2664 9.01526 75.1558 9.84826 73.351C10.2648 72.3791 10.6812 71.4073 10.9589 70.4355C10.9589 70.2966 10.8201 70.019 10.6812 69.7413C9.2929 70.4355 8.59875 71.8238 7.48809 72.7956C6.93276 73.351 6.51628 74.0451 5.68329 74.184C5.54446 73.2121 6.23864 72.7956 6.65513 72.1015C7.21046 70.7131 8.59875 69.8802 8.87642 68.353C8.87642 68.2142 9.01521 68.2142 9.01521 68.0753C9.01521 68.0753 9.01521 67.9365 9.01521 67.7977C9.01521 68.0753 8.87642 68.2142 8.87642 68.353ZM-8.61642 54.0533C-1.53597 45.5845 7.48813 41.4195 18.4559 41.003C18.317 40.17 17.6228 40.0312 17.2064 39.8924C14.4297 39.1982 11.5142 38.6429 8.32105 38.7817C6.93273 39.4759 5.40564 40.17 3.87849 41.003C-0.84181 43.6409 -4.72915 47.2505 -7.78346 51.6931C-8.33879 52.3873 -8.89408 53.0814 -8.61642 54.0533ZM37.0594 73.4898C36.7817 73.6286 36.2263 73.6286 36.0875 73.7675C35.3934 74.7393 34.8381 75.8499 34.1439 76.6829C30.3954 81.9586 25.5363 85.5682 19.15 87.0954C15.1239 88.0672 11.0977 88.3448 6.93273 87.7895C4.98908 87.5119 3.04549 87.0954 1.10184 86.8177C0.268848 86.6789 -0.702978 86.8177 -1.6748 86.8177L-1.81369 86.54V86.6789C0.824127 88.3448 3.73962 89.1778 6.79393 89.4555C9.57058 89.7332 12.3472 89.872 15.1239 89.872C20.3995 89.872 24.981 88.0672 29.0071 84.5964C32.7556 81.5421 35.5322 77.9324 37.0594 73.4898C37.0594 73.2121 36.9205 73.0733 37.0594 73.0733C37.337 72.6568 37.1982 72.518 37.0594 72.7956C36.9205 72.9345 37.0594 73.2121 37.0594 73.4898ZM31.9225 76.1276C32.2002 75.9888 32.7556 75.8499 32.8944 75.5723C34.4215 73.6286 35.6711 71.4073 36.5041 69.0472C37.3371 66.8258 37.7535 64.4657 37.4758 61.9667C37.0593 58.7736 36.504 55.7193 35.9487 52.5261C35.8099 51.5543 35.5322 50.7213 35.1158 49.8883C32.7556 44.335 28.5906 41.003 22.8984 39.4759C22.7596 39.4759 22.6208 39.6147 22.482 39.6147C22.6208 40.3089 23.1762 40.5865 23.7315 40.8642C27.7576 43.502 30.1178 47.2505 31.3673 51.6931C33.4497 58.7736 34.0051 65.9929 32.3391 73.351C32.2003 74.4616 32.0614 75.2946 31.9225 76.1276ZM-1.53601 62.1055C5.82211 61.689 5.82214 61.689 10.1259 64.188C11.0978 64.3269 11.7919 64.4657 12.3472 64.6045C14.4297 66.687 13.1802 69.186 13.7355 71.2685C15.6792 72.7956 17.7617 73.4898 20.1218 72.9345C21.5101 72.6568 22.8985 72.1015 23.4538 70.7131C23.4538 69.3248 22.7597 68.6307 21.9267 67.9365C20.9549 67.1035 19.7054 66.5482 19.15 65.2987C18.7335 64.0492 19.15 63.2162 19.8442 62.2444C20.816 60.7172 21.649 59.0513 22.0655 57.1076C22.2043 55.9969 22.2043 55.0251 21.3713 54.1921C20.3995 53.6368 19.2888 53.9144 18.317 54.1921C17.3452 54.4698 16.3734 55.0251 15.4016 55.3028C14.4297 55.7193 13.319 55.8581 12.3472 55.3028C10.4036 54.0533 9.57061 51.2766 6.65513 51.1378C6.37747 51.4155 5.82211 51.5543 5.40561 51.9708C4.85028 52.6649 4.15615 53.3591 3.87849 54.331C3.18433 56.2746 1.79599 57.6629 0.129999 58.7736C-0.425329 59.0512 -0.841845 59.6066 -1.53601 60.0231C-1.67484 60.5784 -1.67484 61.2726 -1.53601 62.1055ZM3.7396 35.4498C5.82209 35.5886 7.62691 35.8663 9.2929 35.8663C10.6812 35.8663 11.9307 35.7274 13.3191 35.5886C15.1239 35.4498 17.0675 35.1721 18.8724 35.1721C21.0937 35.1721 23.4538 35.1721 25.6751 35.4498C33.0332 36.4216 38.17 40.1701 40.5302 47.3893C41.3632 49.7495 42.0573 52.2485 42.8903 54.6086C44.4175 59.1901 44.5563 63.7715 43.7233 68.353C43.5845 68.9083 43.5845 69.3248 43.4457 70.4355C44.1399 69.6025 44.5563 69.186 44.6951 68.7695C47.1941 63.4939 47.333 57.9406 45.2505 52.5261C44.001 49.4718 42.7515 46.4175 41.502 43.3632C40.1137 40.17 37.8924 37.8099 35.1158 35.8663C33.1721 34.4779 30.9508 33.6449 28.5906 32.9508C26.5081 32.3954 24.4256 31.9789 22.3432 31.7013C16.0957 30.5906 10.1259 31.4236 4.57265 34.3391C4.15615 34.4779 4.1561 34.7556 3.7396 35.4498ZM-17.0852 68.353C-16.1134 62.7997 -14.1698 57.8018 -11.5319 52.9426C-8.89413 48.0835 -5.14566 44.1962 -0.425364 41.1419C0.268797 40.7254 1.10177 40.5866 1.37944 39.7536C1.37944 39.6147 1.24064 39.4759 1.24064 39.4759C-1.53601 39.1982 -4.31263 39.6147 -6.81161 40.8642C-13.7532 44.335 -18.3347 49.6106 -19.3065 57.6629C-19.723 61.1337 -19.3065 64.3269 -17.9182 67.3812C-17.9182 67.7977 -17.5017 67.9365 -17.0852 68.353ZM28.4517 69.7413C28.3129 67.9365 28.1741 66.1317 28.0353 64.4657C27.7576 61.8279 27.0635 59.1901 25.814 56.8299C25.6751 56.5523 25.2587 56.5523 24.7033 56.1358C24.8422 57.6629 24.8421 58.9124 25.1198 60.0231C25.2586 61.2726 25.6751 62.3832 25.6751 63.6327C25.6751 64.8822 25.3975 66.2705 25.1198 67.6588C25.6751 68.9083 26.0916 70.2967 25.5363 71.9626C25.3975 72.2403 25.2586 72.518 24.8421 72.7956C24.2868 73.2121 23.7315 73.6286 23.315 74.0451C22.6208 74.6005 21.7879 75.017 21.2325 75.7111C19.4277 77.9324 17.0675 79.1819 14.7074 80.1537C11.9307 81.2644 9.01525 81.5421 6.09977 80.4314C5.54444 80.2926 5.12798 80.1538 4.57265 80.0149C3.32316 80.1538 2.07362 80.4314 0.962959 80.5702C0.407631 80.7091 -0.00888443 80.8479 -0.00888443 81.5421C3.32309 83.6245 7.21041 84.1799 10.6812 84.8741C18.5947 83.2081 26.2304 76.8218 28.4517 69.7413ZM7.90457 44.6127C9.15406 45.0292 9.70944 45.3069 10.1259 45.3069C13.4579 45.8622 16.5122 47.1117 19.4276 48.6388C23.8703 50.8601 27.0634 54.3309 28.7294 59.0512C29.1459 60.1619 29.4236 61.2726 29.9789 62.7997C30.9508 59.7454 31.0896 57.1076 30.3954 54.4698C29.2848 50.5825 27.3411 47.1117 24.4257 44.335C19.15 42.8079 14.0132 42.669 7.90457 44.6127ZM19.8442 50.7213C13.8744 46.5563 7.76578 46.4175 1.51832 47.5282C-3.34081 50.0271 -7.50581 55.5804 -9.44946 59.1901C-9.72713 59.6066 -9.86598 60.1619 -9.03298 60.5784C-7.08933 57.5241 -4.86796 54.7474 -1.95248 52.5261C1.10183 50.3048 4.15614 48.2223 7.76578 47.3893C9.98709 48.2223 11.653 49.6106 12.7637 51.4155C13.1802 52.1096 13.4579 52.9426 14.2909 53.0814C14.5686 53.0814 14.8462 53.0815 15.1239 52.9426C16.651 52.3873 18.0394 51.6931 19.8442 50.7213ZM1.10184 85.1517C-1.53597 83.0692 -3.47964 81.5421 -5.42329 80.0149C-8.8941 77.0994 -11.1154 73.4898 -12.0872 69.0472C-12.2261 68.6307 -12.0873 68.0753 -12.6426 67.6588C-13.8921 69.0472 -14.0309 69.4637 -14.8639 73.6286C-14.0309 76.5441 -11.8096 78.6266 -9.58826 80.5702C-6.81161 82.9304 -3.34079 84.3187 1.10184 85.1517ZM18.5947 84.4576C19.4277 84.5964 19.8441 84.874 20.1218 84.7352C23.3149 83.9022 25.9528 82.3751 28.5906 80.0149C29.2848 77.0994 30.1177 74.0451 30.8119 70.9908C30.9507 70.4355 31.2284 69.7413 30.5342 69.3248C26.3693 77.9324 26.3693 77.9324 18.5947 84.4576ZM-1.81369 68.0753C-1.81369 67.7977 -1.95248 67.52 -1.95248 67.1035C0.268831 65.7152 2.90663 65.5764 5.40561 64.6045C3.18429 63.9104 3.18431 63.7715 1.51832 64.0492C-1.25832 64.6045 -4.17384 65.021 -6.67282 66.8259C-5.97865 68.0753 -4.72915 68.353 -3.61849 68.7695C-2.64666 69.186 -1.67482 69.6025 -0.564161 69.6025C0.268831 69.7413 1.24066 69.4637 2.21248 69.186C3.18431 68.7695 4.15614 68.2142 4.98913 67.6588C5.26679 67.52 5.26678 67.1035 5.40561 66.5482C2.62896 66.8258 0.546463 67.6588 -1.81369 68.0753ZM-1.6748 76.9606C-4.03495 75.4334 -5.14566 73.0733 -5.97865 70.7131C-7.08931 70.019 -7.92229 69.0472 -9.17178 69.0472C-9.03295 71.1296 -8.89408 71.8238 -7.92226 73.4898C-6.3951 76.1276 -4.5903 78.3489 -2.64665 79.5984C-1.95248 79.0431 -1.81363 78.2101 -1.6748 76.9606ZM8.04346 78.7654C9.43178 79.5984 10.5424 79.4596 11.5143 79.1819C13.7356 78.7654 15.818 77.7936 17.6228 76.4053C17.9005 76.2664 18.0393 75.85 18.317 75.4335C17.2063 75.1558 16.3733 74.8781 15.5403 74.4616C14.7074 74.184 13.8744 73.7675 12.9026 73.351C12.2084 74.3228 11.6531 75.1558 10.9589 75.9888C10.1259 76.9606 9.15411 77.6548 8.04346 78.7654ZM23.7315 61.1337C23.315 61.4114 23.0373 61.4114 22.8984 61.689C22.3431 62.522 21.9266 63.4939 21.5101 64.3269C22.3431 65.4375 22.3432 65.4375 23.4538 65.2987C23.8703 63.9104 24.0092 62.522 23.7315 61.1337ZM-4.03497 71.5461C-2.78548 73.0733 -2.64665 74.3228 -1.25832 74.7393C0.129999 73.0733 0.268814 73.0733 -0.147682 72.3792C-0.425346 72.2403 -0.84186 72.1015 -1.11953 71.9626C-1.67485 71.8238 -2.36898 71.685 -4.03497 71.5461Z" fill="#F9FBFC" fill-opacity="0.1"/>
<path d="M24.2866 93.621C24.2866 93.8986 24.1478 94.1763 24.1478 94.5928C20.5382 96.12 16.7897 97.3695 12.7636 97.3695C8.59861 97.3695 4.43369 97.3695 0.407557 96.2588C-5.0069 94.7317 -10.1437 92.5103 -14.3087 88.623C-15.5582 87.3735 -16.9465 86.4017 -18.196 85.1522C-21.8056 81.8203 -24.027 77.6553 -25.4153 72.935C-26.1095 70.436 -26.526 68.0758 -27.0813 65.5769C-27.2201 65.1604 -27.0813 64.605 -27.0813 63.4944C-26.526 64.3274 -26.1094 64.7439 -25.9706 65.1604C-25.5541 66.5487 -25.2764 68.0759 -24.8599 69.4642C-24.1658 71.6855 -23.3328 74.0456 -22.361 76.2669C-21.1115 79.3213 -19.1679 82.0979 -16.6689 84.3192C-14.7252 85.9852 -12.9204 87.79 -10.9767 89.456C-10.1437 90.1502 -9.31077 90.7055 -8.33895 91.2608C-2.92449 94.3151 2.90652 95.9811 9.15397 96.5365C14.4296 96.5365 19.4275 95.5646 24.2866 93.621Z" fill="#F9FBFC" fill-opacity="0.1"/>
<path d="M4.57281 74.6008V74.7397L4.71161 74.6008H4.57281Z" fill="#F9FBFC" fill-opacity="0.1"/>
<path d="M5.54457 73.9065C5.54457 74.6007 5.26698 74.7395 4.57281 74.6007L4.71161 74.7395C4.85045 74.1842 4.98924 73.7677 5.54457 73.9065Z" fill="#F9FBFC" fill-opacity="0.1"/>
<path d="M147.187 74C152.097 66.7695 157.462 59.9908 163.742 53.7771C164.198 53.3252 164.655 52.8733 165.226 52.4214C165.568 52.7603 165.797 52.8733 166.025 53.2122C167.623 55.3588 169.907 56.7145 172.533 57.3924C176.643 58.4092 180.753 58.4092 184.863 57.2794C189.886 55.8107 195.366 51.1787 195.937 43.3832C196.394 37.7344 194.339 32.9893 190.343 28.9221C187.26 25.8718 183.493 23.9512 179.269 22.7084C176.3 21.8046 173.218 22.0305 170.135 22.8214C167.167 23.6122 164.769 25.3069 163.057 27.9054C162.486 28.8092 161.915 29.826 161.458 30.7298C161.116 31.2947 160.888 31.8595 160.545 32.3115C160.203 32.3115 159.974 32.4244 159.746 32.3115C155.179 30.0519 150.498 27.6794 145.931 25.4198C145.475 25.1939 145.018 24.855 144.561 24.516C144.676 22.3695 145.361 20.4489 146.046 18.4153C146.16 17.8504 146.388 17.3985 146.616 16.9466C147.301 15.5908 147.187 14.2351 146.731 12.8794C146.388 11.7496 145.931 10.6199 145.589 9.4901C144.561 6.89163 143.648 4.18018 142.621 1.58171C142.392 0.790867 141.936 0.225954 141.136 0C139.196 0.338931 139.196 0.338931 137.369 1.69466C136.912 2.37252 137.026 3.16339 137.255 3.84125C137.711 5.42293 138.282 6.8916 138.853 8.47328C139.995 11.7496 141.136 15.026 141.593 18.7542C141.365 19.658 141.136 20.9008 140.908 21.8046C140.337 22.2565 139.881 22.1435 139.538 21.9176C137.826 21.0138 136.113 19.997 134.4 19.0932C133.259 18.5283 132.117 18.1893 130.747 18.8672C130.405 19.3191 129.834 19.884 129.491 20.4489C128.806 21.5786 128.121 22.7084 127.55 23.8382C120.472 37.2824 113.85 51.0657 109.512 65.6397C108.827 67.7863 108.028 69.9328 107.343 72.0794C107.114 72.6443 107.114 73.3221 107 74C107.913 74 108.713 74 109.626 74C111.11 71.1756 112.023 68.2382 112.937 65.1878C115.448 56.8275 118.645 48.8061 121.842 40.7847C123.212 37.6214 124.696 34.458 126.18 31.2947C126.409 30.8428 126.751 30.3909 127.094 29.826C127.436 30.2779 127.664 30.5038 127.779 30.7298C128.92 35.3618 131.889 38.8642 135.542 41.6886C138.967 44.4 142.849 46.5466 146.959 48.1283C149.699 49.258 152.553 49.9359 155.522 49.9359C157.462 49.9359 159.518 49.9359 161.458 49.9359C161.915 49.9359 162.372 49.8229 162.6 50.1619C162.828 50.6138 162.486 50.9527 162.143 51.2916C159.403 54.455 156.777 57.6183 154.037 60.6687C153.923 60.7817 153.467 60.7817 153.238 60.7817C153.124 58.6351 153.01 56.6015 152.896 54.568C152.896 54.568 152.782 54.455 152.553 54.455C152.439 54.6809 152.097 54.9069 152.097 55.1328C152.097 56.3756 152.097 57.5053 152.097 58.7481C152.097 60.2168 152.097 61.7985 152.097 63.3802C151.297 64.5099 150.498 65.6397 149.699 66.7695C149.585 66.8824 149.357 66.8825 149.128 66.8825C148.443 66.0916 148.9 65.1878 148.786 64.3969C148.786 63.4931 148.786 62.7023 148.786 61.7985C148.786 60.7817 148.9 59.8779 148.9 58.8611C148.9 58.0702 149.128 57.2794 148.786 56.3756C147.872 57.0535 147.872 57.9573 147.872 58.8611C147.872 61.4595 147.872 64.058 147.872 66.6565C147.872 67.6733 147.872 68.5771 147.872 69.368C146.731 71.2886 146.731 71.2886 145.589 71.9664C145.246 70.4977 145.589 69.142 145.475 67.7863C145.475 66.4305 145.589 64.9619 145.475 63.6061C145.361 62.2504 145.589 60.7817 144.79 59.313C143.991 61.0076 143.876 62.4763 143.876 63.945C143.876 66.9954 143.991 70.0458 144.105 73.0962C144.105 73.4351 144.219 73.6611 144.333 74C145.475 74 146.388 74 147.187 74ZM142.05 27.1145C142.05 27.0015 142.05 26.8886 142.05 26.8886C142.05 26.8886 142.164 26.8886 142.278 26.7756C142.164 26.8886 142.05 27.0015 142.05 27.1145C141.936 29.487 141.136 31.8596 140.451 34.1191C140.451 34.2321 140.337 34.2321 140.109 34.3451C139.881 34.2321 139.652 34.0061 139.424 33.8931C140.109 31.7466 140.908 29.6 141.593 27.4535C141.593 27.3405 141.821 27.2275 142.05 27.1145ZM132.574 34.571C132.916 34.571 133.259 34.345 133.487 34.458C134.286 34.7969 134.971 35.2489 135.77 35.7008C138.396 37.0565 141.136 38.1863 144.105 38.4122C145.817 38.5252 147.53 38.7512 149.357 38.8642C154.266 39.2031 158.49 41.1237 162.143 44.1741C162.943 44.8519 163.628 45.7557 164.313 46.5466C164.427 46.7725 164.427 47.1115 164.541 47.3374C164.313 47.5634 164.084 47.6763 163.97 47.6763C160.317 48.1283 156.777 48.1282 153.238 47.4504C148.786 46.5466 144.676 44.7389 141.136 42.0275C137.94 39.768 135.085 37.3954 132.574 34.571C132.574 34.458 132.574 34.458 132.688 34.3451C132.688 34.458 132.574 34.458 132.574 34.571ZM169.222 48.6931C169.679 48.9191 170.249 49.258 170.82 49.484C172.533 50.3878 174.359 51.1786 176.3 51.5176C178.47 51.9695 180.639 52.1954 182.808 51.2916C187.831 49.371 191.028 45.4168 190.229 38.9771C189.201 31.0687 181.895 25.7588 173.903 27.0016C171.734 27.3405 169.907 28.2443 168.537 29.826C167.509 30.9558 166.596 32.1985 165.683 33.4412C165.34 33.8931 165.112 34.3451 164.769 34.684C163.97 34.458 163.285 34.345 163.171 33.4412C163.513 31.8595 164.198 30.2779 165.226 28.8092C166.025 27.5664 166.938 26.5496 168.194 25.8718C171.391 24.1771 174.702 23.3863 178.355 24.2901C182.808 25.4198 186.575 27.7924 189.658 31.1817C191.142 32.7634 192.17 34.684 192.969 36.8305C193.996 39.7679 194.225 42.8183 193.311 45.7557C191.941 49.9359 189.316 52.9863 184.977 54.229C182.237 55.0198 179.383 55.3588 176.529 55.1328C172.875 54.7939 169.793 53.4382 167.623 50.3878C167.852 49.484 168.309 48.9191 169.222 48.6931ZM166.71 46.0947C166.368 45.8687 166.025 45.7557 165.911 45.5298C161.458 40.6718 155.978 37.8473 149.471 36.7176C147.644 36.3786 145.817 36.1527 143.991 35.8138C143.534 35.7008 143.077 35.3618 142.506 35.1359C142.621 34.2321 142.621 33.4412 142.849 32.7634C143.191 31.2947 143.534 29.826 143.876 28.3573C143.991 28.1313 144.219 27.9054 144.561 27.5664C145.589 28.0183 146.616 28.4702 147.53 28.9221C152.325 31.2947 157.12 33.6672 161.915 36.0397C164.541 37.3954 167.167 38.7512 169.679 40.2199C170.021 40.4458 170.249 40.7848 170.706 41.1237C169.336 43.0443 168.194 44.626 166.71 46.0947ZM175.729 41.2366C175.729 41.0107 175.729 40.7847 175.844 40.6718C178.241 37.6214 180.639 34.571 183.036 31.5206C183.15 31.4077 183.379 31.2947 183.607 31.1817C183.721 31.1817 183.835 31.1817 183.95 31.2947C184.178 31.4076 184.292 31.5206 184.52 31.6336C188.402 34.9099 189.886 39.0901 188.631 44.0611C188.516 44.626 188.288 45.0779 187.717 45.3038C184.406 44.626 178.013 42.4794 175.729 41.2366ZM166.596 35.4748C167.395 32.3115 169.336 30.2779 171.962 29.1481C174.017 28.2443 176.186 28.1313 178.355 28.6962C179.611 29.0351 180.867 29.0351 181.895 30.1649C179.954 33.4412 177.214 36.1527 174.93 39.0901C174.702 39.316 174.474 39.429 174.017 39.655C171.962 37.8473 169.108 37.2825 166.596 35.4748ZM137.483 33.3282C135.2 32.4244 133.83 31.1817 132.574 29.713C131.889 28.9222 131.09 28.1313 130.405 27.3405C130.062 27.0015 129.72 26.5496 129.377 26.0977C129.834 24.4031 130.861 23.1603 131.775 21.8046C132.003 21.5786 132.345 21.4657 132.574 21.3527C137.255 23.3863 138.168 23.9512 140.109 25.6458C139.196 28.0183 138.739 30.6168 137.483 33.3282ZM186.575 46.9985C186.347 47.6763 185.776 48.0153 185.205 48.3542C184.406 48.8061 183.493 49.371 182.58 49.7099C182.009 49.9359 181.324 50.0489 180.639 50.0489C177.099 50.1619 173.674 49.258 170.82 47.2244C170.706 47.1115 170.706 46.9985 170.592 46.8855C171.734 45.4168 173.104 43.9481 174.588 42.7054C175.501 43.0443 176.414 43.2702 177.214 43.4962C178.013 43.8351 178.812 44.1741 179.611 44.4C180.296 44.626 181.095 44.9649 181.78 45.1908C182.58 45.4168 183.493 45.6428 184.292 45.8687C185.091 46.2076 186.005 46.2076 186.575 46.9985ZM145.246 15.026C144.676 17.8504 144.105 20.5618 142.849 23.7252C142.849 22.7084 142.735 22.2565 142.849 21.9176C143.42 19.997 143.306 18.0764 142.735 16.1557C141.707 13.1054 140.908 9.94199 139.881 6.89161C139.424 5.53588 138.967 4.29314 138.967 2.93741C139.196 2.25955 139.652 2.0336 140.223 1.92062C140.337 2.0336 140.68 2.14657 140.68 2.37253C142.278 6.55268 143.762 10.8458 145.246 15.026Z" fill="#F9FBFC" fill-opacity="0.1"/>
<path d="M141 74C141 70.6771 141 67.4688 140.843 64.1458C140.843 63.5729 140.686 63 139.588 63C139.431 63.3438 139.118 63.6875 139.118 64.1458C138.961 65.2917 138.961 66.5521 139.118 67.6979C139.118 69.7604 139.275 71.8229 139.275 73.8854C139.745 74 140.373 74 141 74Z" fill="#F9FBFC" fill-opacity="0.1"/>
<path d="M136 74C136 72.2295 135.921 70.459 135.921 68.6885C135.921 68.2951 135.764 68 135.293 68C134.743 69.9672 135.136 72.0328 135.136 74C135.45 74 135.764 74 136 74Z" fill="#F9FBFC" fill-opacity="0.1"/>
<path d="M129.143 74.875C129.619 73.5 129.905 72 130 70.5C129.714 70.375 129.524 70.125 129.333 70C128.286 71.5 128.286 73.25 128 75C128.381 74.875 128.762 74.875 129.143 74.875Z" fill="#F9FBFC" fill-opacity="0.1"/>
<path d="M131.235 61C131.824 60.6757 132.294 60.3514 133 60.027C133 59.2703 133 58.6216 133 57.8649C132.412 57.5406 131.824 57.2162 131.353 57C129.941 57.2162 129.118 57.8649 129 59.054C129 60.027 129.706 60.6757 131.235 61Z" fill="#F9FBFC" fill-opacity="0.1"/>
<path d="M126.307 51.4571C125.037 50.8857 124.228 50.7714 123.535 51.5714C122.842 52.2571 122.842 53.0571 123.42 54.2C123.766 54.4286 124.344 54.7714 124.69 55C125.961 54.8857 126.654 54.3143 127 53.0571C126.885 52.6 126.538 52.0286 126.307 51.4571Z" fill="#F9FBFC" fill-opacity="0.1"/>
<path d="M129.727 48C130.545 47.6364 131 46.9091 131 45.697C130.727 44.4849 130.182 44 129.364 44C128.455 44.3636 128 45.0909 128 46.303C128.273 47.3939 128.727 48 129.727 48Z" fill="#F9FBFC" fill-opacity="0.1"/>
<path d="M137 50.6923C136.583 50.4615 136.249 50.2308 135.999 50C135.165 50.4615 134.831 51.1538 135.081 52.3077C135.248 52.5385 135.498 52.7692 135.665 53C136.666 52.8846 136.833 52.5385 137 50.6923Z" fill="#F9FBFC" fill-opacity="0.1"/>
<path d="M123.193 67C123.504 66.8095 123.971 66.5238 123.971 66.4286C124.126 65.4762 123.66 65.0952 122.572 65C121.794 65 121.328 65.2857 121.017 65.6667C120.861 66.5238 121.794 66.8095 123.193 67Z" fill="#F9FBFC" fill-opacity="0.1"/>
</svg>
